<svg width="3014" height="811" viewBox="0 0 3014 811" fill="none" xmlns="http://www.w3.org/2000/svg">
<g clip-path="url(#clip0_151_32)">
<g clip-path="url(#clip1_151_32)">
<path fill-rule="evenodd" clip-rule="evenodd" d="M1488.3 0.00146484L1487.61 0.226562H0V0.226568H1487.61L1349.42 45.373L1348.91 815.377H1488.3V0.226568H3013V0.226562H1488.3V0.00146484ZM0 816.012H138.805H139.317V261.012L0 306.398L-1.09375 306.754L-0.625574 816.012H0ZM1488.3 0.226562H1487.61V0.226568H1488.3V0.226562ZM362.721 303.796C362.721 303.796 362.75 291.951 362.658 284.808C362.566 277.665 362.658 258.012 362.658 258.012H221.807V813.012H362.658V497.621C362.658 385.698 563.121 390.785 563.121 497.621V813.012H706.098C706.098 813.012 704.797 647.682 704.797 492.526C704.797 337.371 519.912 227.999 362.721 303.796ZM787.624 431.312C787.6 307.575 787.854 258.585 788.865 258.177L926.876 258.322L926.877 600.118C926.877 705.166 1130.97 708.218 1130.97 600.118L1130.97 258.535L1268.32 258.679V438.603C1268.32 543.991 1267.65 600.118 1267.65 600.118C1267.65 885.248 788.866 884.231 788.602 600.118C788.602 600.118 787.64 517.441 787.624 431.312ZM1571.95 258.177C1570.94 258.585 1570.69 307.575 1570.71 431.312C1570.73 517.441 1571.69 600.118 1571.69 600.118C1571.95 884.231 2050.74 885.248 2050.74 600.118C2050.74 600.118 2051.41 543.991 2051.41 438.603V258.679L1914.06 258.535L1914.06 600.118C1914.06 708.218 1709.97 705.166 1709.97 600.118L1709.96 258.322L1571.95 258.177ZM2269.98 396.808H2276.24H2350.44H2424.12V261.013H2269.98V57.3194L2131.89 102.691L2130.9 555.295C2137.29 658.563 2201.84 775.057 2424.12 815.753V679.24C2341.22 667.719 2269.98 611.253 2269.98 555.295V396.808ZM3000.64 482.491C3003.93 499.541 3005.61 516.958 3005.61 534.525H3004.92C3005.04 559.996 3001.62 582.656 2995.27 613.206H2608.43C2618.78 628.632 2632.16 642.005 2647.9 652.455C2675.37 670.686 2708.35 678.892 2741.23 675.675C2774.11 672.459 2804.84 658.019 2828.2 634.816L2924.08 730.049C2878.54 775.284 2818.61 803.435 2754.52 809.706C2690.42 815.976 2626.12 799.978 2572.57 764.436C2519.02 728.895 2479.54 676.01 2460.84 614.792C2442.14 553.574 2445.4 487.811 2470.04 428.708C2494.69 369.605 2539.21 320.819 2596.01 290.663C2652.81 260.507 2718.38 250.845 2781.54 263.326C2844.71 275.806 2901.57 309.656 2942.42 359.107C2971.15 393.871 2990.71 434.832 2999.8 478.322H3000.04C3000.14 479.039 3000.25 479.751 3000.35 480.459C3000.45 481.14 3000.55 481.818 3000.64 482.491ZM2858.34 478.322C2853.09 466.243 2846.14 454.863 2837.61 444.547C2816.66 419.181 2787.49 401.818 2755.09 395.417C2722.69 389.015 2689.06 393.971 2659.92 409.439C2631.41 424.579 2608.93 448.872 2596.13 478.322H2858.34Z" fill="url(#paint0_linear_151_32)"/>
</g>
</g>
<defs>
<linearGradient id="paint0_linear_151_32" x1="-1.09375" y1="408.007" x2="3013" y2="408.007" gradientUnits="userSpaceOnUse">
<stop stop-color="#46B4F2"/>
<stop offset="1" stop-color="#B37DF2"/>
</linearGradient>
<clipPath id="clip0_151_32">
<rect width="3014" height="811" fill="white"/>
</clipPath>
<clipPath id="clip1_151_32">
<rect width="3013.56" height="817.394" fill="white"/>
</clipPath>
</defs>
</svg>
