<svg width="1148" height="1148" viewBox="0 0 1148 1148" fill="none" xmlns="http://www.w3.org/2000/svg">
<g clip-path="url(#clip0_165_35)">
<path d="M1148 0H0V1148H1148V0Z" fill="white"/>
<path d="M322 56C329.732 56 336 62.2681 336 70C336 77.7323 329.732 84 322 84C314.268 84 308 77.7323 308 70C308 62.2681 314.268 56 322 56Z" fill="black"/>
<path d="M434 56C441.732 56 448 62.2681 448 70C448 77.7323 441.732 84 434 84C426.268 84 420 77.7323 420 70C420 62.2681 426.268 56 434 56Z" fill="black"/>
<path d="M490 56C497.732 56 504 62.2681 504 70C504 77.7323 497.732 84 490 84C482.268 84 476 77.7323 476 70C476 62.2681 482.268 56 490 56Z" fill="black"/>
<path d="M574 56C581.732 56 588 62.2681 588 70C588 77.7323 581.732 84 574 84C566.268 84 560 77.7323 560 70C560 62.2681 566.268 56 574 56Z" fill="black"/>
<path d="M602 56C609.732 56 616 62.2681 616 70C616 77.7323 609.732 84 602 84C594.268 84 588 77.7323 588 70C588 62.2681 594.268 56 602 56Z" fill="black"/>
<path d="M630 56C637.732 56 644 62.2681 644 70C644 77.7323 637.732 84 630 84C622.268 84 616 77.7323 616 70C616 62.2681 622.268 56 630 56Z" fill="black"/>
<path d="M658 56C665.732 56 672 62.2681 672 70C672 77.7323 665.732 84 658 84C650.268 84 644 77.7323 644 70C644 62.2681 650.268 56 658 56Z" fill="black"/>
<path d="M714 56C721.732 56 728 62.2681 728 70C728 77.7323 721.732 84 714 84C706.268 84 700 77.7323 700 70C700 62.2681 706.268 56 714 56Z" fill="black"/>
<path d="M742 56C749.732 56 756 62.2681 756 70C756 77.7323 749.732 84 742 84C734.268 84 728 77.7323 728 70C728 62.2681 734.268 56 742 56Z" fill="black"/>
<path d="M294 84C301.732 84 308 90.2681 308 98C308 105.732 301.732 112 294 112C286.268 112 280 105.732 280 98C280 90.2681 286.268 84 294 84Z" fill="black"/>
<path d="M350 84C357.732 84 364 90.2681 364 98C364 105.732 357.732 112 350 112C342.268 112 336 105.732 336 98C336 90.2681 342.268 84 350 84Z" fill="black"/>
<path d="M406 84C413.732 84 420 90.2681 420 98C420 105.732 413.732 112 406 112C398.268 112 392 105.732 392 98C392 90.2681 398.268 84 406 84Z" fill="black"/>
<path d="M462 84C469.732 84 476 90.2681 476 98C476 105.732 469.732 112 462 112C454.268 112 448 105.732 448 98C448 90.2681 454.268 84 462 84Z" fill="black"/>
<path d="M518 84C525.732 84 532 90.2681 532 98C532 105.732 525.732 112 518 112C510.268 112 504 105.732 504 98C504 90.2681 510.268 84 518 84Z" fill="black"/>
<path d="M546 84C553.732 84 560 90.2681 560 98C560 105.732 553.732 112 546 112C538.268 112 532 105.732 532 98C532 90.2681 538.268 84 546 84Z" fill="black"/>
<path d="M574 84C581.732 84 588 90.2681 588 98C588 105.732 581.732 112 574 112C566.268 112 560 105.732 560 98C560 90.2681 566.268 84 574 84Z" fill="black"/>
<path d="M630 84C637.732 84 644 90.2681 644 98C644 105.732 637.732 112 630 112C622.268 112 616 105.732 616 98C616 90.2681 622.268 84 630 84Z" fill="black"/>
<path d="M658 84C665.732 84 672 90.2681 672 98C672 105.732 665.732 112 658 112C650.268 112 644 105.732 644 98C644 90.2681 650.268 84 658 84Z" fill="black"/>
<path d="M686 84C693.732 84 700 90.2681 700 98C700 105.732 693.732 112 686 112C678.268 112 672 105.732 672 98C672 90.2681 678.268 84 686 84Z" fill="black"/>
<path d="M714 84C721.732 84 728 90.2681 728 98C728 105.732 721.732 112 714 112C706.268 112 700 105.732 700 98C700 90.2681 706.268 84 714 84Z" fill="black"/>
<path d="M854 84C861.732 84 868 90.2681 868 98C868 105.732 861.732 112 854 112C846.268 112 840 105.732 840 98C840 90.2681 846.268 84 854 84Z" fill="black"/>
<path d="M294 112C301.732 112 308 118.268 308 126C308 133.732 301.732 140 294 140C286.268 140 280 133.732 280 126C280 118.268 286.268 112 294 112Z" fill="black"/>
<path d="M350 112C357.732 112 364 118.268 364 126C364 133.732 357.732 140 350 140C342.268 140 336 133.732 336 126C336 118.268 342.268 112 350 112Z" fill="black"/>
<path d="M378 112C385.732 112 392 118.268 392 126C392 133.732 385.732 140 378 140C370.268 140 364 133.732 364 126C364 118.268 370.268 112 378 112Z" fill="black"/>
<path d="M434 112C441.732 112 448 118.268 448 126C448 133.732 441.732 140 434 140C426.268 140 420 133.732 420 126C420 118.268 426.268 112 434 112Z" fill="black"/>
<path d="M462 112C469.732 112 476 118.268 476 126C476 133.732 469.732 140 462 140C454.268 140 448 133.732 448 126C448 118.268 454.268 112 462 112Z" fill="black"/>
<path d="M490 112C497.732 112 504 118.268 504 126C504 133.732 497.732 140 490 140C482.268 140 476 133.732 476 126C476 118.268 482.268 112 490 112Z" fill="black"/>
<path d="M518 112C525.732 112 532 118.268 532 126C532 133.732 525.732 140 518 140C510.268 140 504 133.732 504 126C504 118.268 510.268 112 518 112Z" fill="black"/>
<path d="M546 112C553.732 112 560 118.268 560 126C560 133.732 553.732 140 546 140C538.268 140 532 133.732 532 126C532 118.268 538.268 112 546 112Z" fill="black"/>
<path d="M602 112C609.732 112 616 118.268 616 126C616 133.732 609.732 140 602 140C594.268 140 588 133.732 588 126C588 118.268 594.268 112 602 112Z" fill="black"/>
<path d="M658 112C665.732 112 672 118.268 672 126C672 133.732 665.732 140 658 140C650.268 140 644 133.732 644 126C644 118.268 650.268 112 658 112Z" fill="black"/>
<path d="M686 112C693.732 112 700 118.268 700 126C700 133.732 693.732 140 686 140C678.268 140 672 133.732 672 126C672 118.268 678.268 112 686 112Z" fill="black"/>
<path d="M770 112C777.732 112 784 118.268 784 126C784 133.732 777.732 140 770 140C762.268 140 756 133.732 756 126C756 118.268 762.268 112 770 112Z" fill="black"/>
<path d="M826 112C833.732 112 840 118.268 840 126C840 133.732 833.732 140 826 140C818.268 140 812 133.732 812 126C812 118.268 818.268 112 826 112Z" fill="black"/>
<path d="M294 140C301.732 140 308 146.268 308 154C308 161.732 301.732 168 294 168C286.268 168 280 161.732 280 154C280 146.268 286.268 140 294 140Z" fill="black"/>
<path d="M350 140C357.732 140 364 146.268 364 154C364 161.732 357.732 168 350 168C342.268 168 336 161.732 336 154C336 146.268 342.268 140 350 140Z" fill="black"/>
<path d="M378 140C385.732 140 392 146.268 392 154C392 161.732 385.732 168 378 168C370.268 168 364 161.732 364 154C364 146.268 370.268 140 378 140Z" fill="black"/>
<path d="M406 140C413.732 140 420 146.268 420 154C420 161.732 413.732 168 406 168C398.268 168 392 161.732 392 154C392 146.268 398.268 140 406 140Z" fill="black"/>
<path d="M434 140C441.732 140 448 146.268 448 154C448 161.732 441.732 168 434 168C426.268 168 420 161.732 420 154C420 146.268 426.268 140 434 140Z" fill="black"/>
<path d="M490 140C497.732 140 504 146.268 504 154C504 161.732 497.732 168 490 168C482.268 168 476 161.732 476 154C476 146.268 482.268 140 490 140Z" fill="black"/>
<path d="M518 140C525.732 140 532 146.268 532 154C532 161.732 525.732 168 518 168C510.268 168 504 161.732 504 154C504 146.268 510.268 140 518 140Z" fill="black"/>
<path d="M546 140C553.732 140 560 146.268 560 154C560 161.732 553.732 168 546 168C538.268 168 532 161.732 532 154C532 146.268 538.268 140 546 140Z" fill="black"/>
<path d="M658 140C665.732 140 672 146.268 672 154C672 161.732 665.732 168 658 168C650.268 168 644 161.732 644 154C644 146.268 650.268 140 658 140Z" fill="black"/>
<path d="M686 140C693.732 140 700 146.268 700 154C700 161.732 693.732 168 686 168C678.268 168 672 161.732 672 154C672 146.268 678.268 140 686 140Z" fill="black"/>
<path d="M742 140C749.732 140 756 146.268 756 154C756 161.732 749.732 168 742 168C734.268 168 728 161.732 728 154C728 146.268 734.268 140 742 140Z" fill="black"/>
<path d="M770 140C777.732 140 784 146.268 784 154C784 161.732 777.732 168 770 168C762.268 168 756 161.732 756 154C756 146.268 762.268 140 770 140Z" fill="black"/>
<path d="M798 140C805.732 140 812 146.268 812 154C812 161.732 805.732 168 798 168C790.268 168 784 161.732 784 154C784 146.268 790.268 140 798 140Z" fill="black"/>
<path d="M294 168C301.732 168 308 174.268 308 182C308 189.732 301.732 196 294 196C286.268 196 280 189.732 280 182C280 174.268 286.268 168 294 168Z" fill="black"/>
<path d="M322 168C329.732 168 336 174.268 336 182C336 189.732 329.732 196 322 196C314.268 196 308 189.732 308 182C308 174.268 314.268 168 322 168Z" fill="black"/>
<path d="M350 168C357.732 168 364 174.268 364 182C364 189.732 357.732 196 350 196C342.268 196 336 189.732 336 182C336 174.268 342.268 168 350 168Z" fill="black"/>
<path d="M378 168C385.732 168 392 174.268 392 182C392 189.732 385.732 196 378 196C370.268 196 364 189.732 364 182C364 174.268 370.268 168 378 168Z" fill="black"/>
<path d="M490 168C497.732 168 504 174.268 504 182C504 189.732 497.732 196 490 196C482.268 196 476 189.732 476 182C476 174.268 482.268 168 490 168Z" fill="black"/>
<path d="M546 168C553.732 168 560 174.268 560 182C560 189.732 553.732 196 546 196C538.268 196 532 189.732 532 182C532 174.268 538.268 168 546 168Z" fill="black"/>
<path d="M574 168C581.732 168 588 174.268 588 182C588 189.732 581.732 196 574 196C566.268 196 560 189.732 560 182C560 174.268 566.268 168 574 168Z" fill="black"/>
<path d="M602 168C609.732 168 616 174.268 616 182C616 189.732 609.732 196 602 196C594.268 196 588 189.732 588 182C588 174.268 594.268 168 602 168Z" fill="black"/>
<path d="M714 168C721.732 168 728 174.268 728 182C728 189.732 721.732 196 714 196C706.268 196 700 189.732 700 182C700 174.268 706.268 168 714 168Z" fill="black"/>
<path d="M742 168C749.732 168 756 174.268 756 182C756 189.732 749.732 196 742 196C734.268 196 728 189.732 728 182C728 174.268 734.268 168 742 168Z" fill="black"/>
<path d="M798 168C805.732 168 812 174.268 812 182C812 189.732 805.732 196 798 196C790.268 196 784 189.732 784 182C784 174.268 790.268 168 798 168Z" fill="black"/>
<path d="M294 196C301.732 196 308 202.268 308 210C308 217.732 301.732 224 294 224C286.268 224 280 217.732 280 210C280 202.268 286.268 196 294 196Z" fill="black"/>
<path d="M322 196C329.732 196 336 202.268 336 210C336 217.732 329.732 224 322 224C314.268 224 308 217.732 308 210C308 202.268 314.268 196 322 196Z" fill="black"/>
<path d="M378 196C385.732 196 392 202.268 392 210C392 217.732 385.732 224 378 224C370.268 224 364 217.732 364 210C364 202.268 370.268 196 378 196Z" fill="black"/>
<path d="M406 196C413.732 196 420 202.268 420 210C420 217.732 413.732 224 406 224C398.268 224 392 217.732 392 210C392 202.268 398.268 196 406 196Z" fill="black"/>
<path d="M434 196C441.732 196 448 202.268 448 210C448 217.732 441.732 224 434 224C426.268 224 420 217.732 420 210C420 202.268 426.268 196 434 196Z" fill="black"/>
<path d="M490 196C497.732 196 504 202.268 504 210C504 217.732 497.732 224 490 224C482.268 224 476 217.732 476 210C476 202.268 482.268 196 490 196Z" fill="black"/>
<path d="M574 196C581.732 196 588 202.268 588 210C588 217.732 581.732 224 574 224C566.268 224 560 217.732 560 210C560 202.268 566.268 196 574 196Z" fill="black"/>
<path d="M658 196C665.732 196 672 202.268 672 210C672 217.732 665.732 224 658 224C650.268 224 644 217.732 644 210C644 202.268 650.268 196 658 196Z" fill="black"/>
<path d="M686 196C693.732 196 700 202.268 700 210C700 217.732 693.732 224 686 224C678.268 224 672 217.732 672 210C672 202.268 678.268 196 686 196Z" fill="black"/>
<path d="M742 196C749.732 196 756 202.268 756 210C756 217.732 749.732 224 742 224C734.268 224 728 217.732 728 210C728 202.268 734.268 196 742 196Z" fill="black"/>
<path d="M770 196C777.732 196 784 202.268 784 210C784 217.732 777.732 224 770 224C762.268 224 756 217.732 756 210C756 202.268 762.268 196 770 196Z" fill="black"/>
<path d="M798 196C805.732 196 812 202.268 812 210C812 217.732 805.732 224 798 224C790.268 224 784 217.732 784 210C784 202.268 790.268 196 798 196Z" fill="black"/>
<path d="M294 224C301.732 224 308 230.268 308 238C308 245.732 301.732 252 294 252C286.268 252 280 245.732 280 238C280 230.268 286.268 224 294 224Z" fill="black"/>
<path d="M350 224C357.732 224 364 230.268 364 238C364 245.732 357.732 252 350 252C342.268 252 336 245.732 336 238C336 230.268 342.268 224 350 224Z" fill="black"/>
<path d="M406 224C413.732 224 420 230.268 420 238C420 245.732 413.732 252 406 252C398.268 252 392 245.732 392 238C392 230.268 398.268 224 406 224Z" fill="black"/>
<path d="M462 224C469.732 224 476 230.268 476 238C476 245.732 469.732 252 462 252C454.268 252 448 245.732 448 238C448 230.268 454.268 224 462 224Z" fill="black"/>
<path d="M518 224C525.732 224 532 230.268 532 238C532 245.732 525.732 252 518 252C510.268 252 504 245.732 504 238C504 230.268 510.268 224 518 224Z" fill="black"/>
<path d="M574 224C581.732 224 588 230.268 588 238C588 245.732 581.732 252 574 252C566.268 252 560 245.732 560 238C560 230.268 566.268 224 574 224Z" fill="black"/>
<path d="M630 224C637.732 224 644 230.268 644 238C644 245.732 637.732 252 630 252C622.268 252 616 245.732 616 238C616 230.268 622.268 224 630 224Z" fill="black"/>
<path d="M686 224C693.732 224 700 230.268 700 238C700 245.732 693.732 252 686 252C678.268 252 672 245.732 672 238C672 230.268 678.268 224 686 224Z" fill="black"/>
<path d="M742 224C749.732 224 756 230.268 756 238C756 245.732 749.732 252 742 252C734.268 252 728 245.732 728 238C728 230.268 734.268 224 742 224Z" fill="black"/>
<path d="M798 224C805.732 224 812 230.268 812 238C812 245.732 805.732 252 798 252C790.268 252 784 245.732 784 238C784 230.268 790.268 224 798 224Z" fill="black"/>
<path d="M854 224C861.732 224 868 230.268 868 238C868 245.732 861.732 252 854 252C846.268 252 840 245.732 840 238C840 230.268 846.268 224 854 224Z" fill="black"/>
<path d="M406 252C413.732 252 420 258.268 420 266C420 273.732 413.732 280 406 280C398.268 280 392 273.732 392 266C392 258.268 398.268 252 406 252Z" fill="black"/>
<path d="M434 252C441.732 252 448 258.268 448 266C448 273.732 441.732 280 434 280C426.268 280 420 273.732 420 266C420 258.268 426.268 252 434 252Z" fill="black"/>
<path d="M490 252C497.732 252 504 258.268 504 266C504 273.732 497.732 280 490 280C482.268 280 476 273.732 476 266C476 258.268 482.268 252 490 252Z" fill="black"/>
<path d="M546 252C553.732 252 560 258.268 560 266C560 273.732 553.732 280 546 280C538.268 280 532 273.732 532 266C532 258.268 538.268 252 546 252Z" fill="black"/>
<path d="M630 252C637.732 252 644 258.268 644 266C644 273.732 637.732 280 630 280C622.268 280 616 273.732 616 266C616 258.268 622.268 252 630 252Z" fill="black"/>
<path d="M658 252C665.732 252 672 258.268 672 266C672 273.732 665.732 280 658 280C650.268 280 644 273.732 644 266C644 258.268 650.268 252 658 252Z" fill="black"/>
<path d="M126 280C133.732 280 140 286.268 140 294C140 301.732 133.732 308 126 308C118.268 308 112 301.732 112 294C112 286.268 118.268 280 126 280Z" fill="black"/>
<path d="M210 280C217.732 280 224 286.268 224 294C224 301.732 217.732 308 210 308C202.268 308 196 301.732 196 294C196 286.268 202.268 280 210 280Z" fill="black"/>
<path d="M238 280C245.732 280 252 286.268 252 294C252 301.732 245.732 308 238 308C230.268 308 224 301.732 224 294C224 286.268 230.268 280 238 280Z" fill="black"/>
<path d="M266 280C273.732 280 280 286.268 280 294C280 301.732 273.732 308 266 308C258.268 308 252 301.732 252 294C252 286.268 258.268 280 266 280Z" fill="black"/>
<path d="M294 280C301.732 280 308 286.268 308 294C308 301.732 301.732 308 294 308C286.268 308 280 301.732 280 294C280 286.268 286.268 280 294 280Z" fill="black"/>
<path d="M322 280C329.732 280 336 286.268 336 294C336 301.732 329.732 308 322 308C314.268 308 308 301.732 308 294C308 286.268 314.268 280 322 280Z" fill="black"/>
<path d="M378 280C385.732 280 392 286.268 392 294C392 301.732 385.732 308 378 308C370.268 308 364 301.732 364 294C364 286.268 370.268 280 378 280Z" fill="black"/>
<path d="M434 280C441.732 280 448 286.268 448 294C448 301.732 441.732 308 434 308C426.268 308 420 301.732 420 294C420 286.268 426.268 280 434 280Z" fill="black"/>
<path d="M462 280C469.732 280 476 286.268 476 294C476 301.732 469.732 308 462 308C454.268 308 448 301.732 448 294C448 286.268 454.268 280 462 280Z" fill="black"/>
<path d="M490 280C497.732 280 504 286.268 504 294C504 301.732 497.732 308 490 308C482.268 308 476 301.732 476 294C476 286.268 482.268 280 490 280Z" fill="black"/>
<path d="M518 280C525.732 280 532 286.268 532 294C532 301.732 525.732 308 518 308C510.268 308 504 301.732 504 294C504 286.268 510.268 280 518 280Z" fill="black"/>
<path d="M546 280C553.732 280 560 286.268 560 294C560 301.732 553.732 308 546 308C538.268 308 532 301.732 532 294C532 286.268 538.268 280 546 280Z" fill="black"/>
<path d="M574 280C581.732 280 588 286.268 588 294C588 301.732 581.732 308 574 308C566.268 308 560 301.732 560 294C560 286.268 566.268 280 574 280Z" fill="black"/>
<path d="M602 280C609.732 280 616 286.268 616 294C616 301.732 609.732 308 602 308C594.268 308 588 301.732 588 294C588 286.268 594.268 280 602 280Z" fill="black"/>
<path d="M630 280C637.732 280 644 286.268 644 294C644 301.732 637.732 308 630 308C622.268 308 616 301.732 616 294C616 286.268 622.268 280 630 280Z" fill="black"/>
<path d="M658 280C665.732 280 672 286.268 672 294C672 301.732 665.732 308 658 308C650.268 308 644 301.732 644 294C644 286.268 650.268 280 658 280Z" fill="black"/>
<path d="M770 280C777.732 280 784 286.268 784 294C784 301.732 777.732 308 770 308C762.268 308 756 301.732 756 294C756 286.268 762.268 280 770 280Z" fill="black"/>
<path d="M826 280C833.732 280 840 286.268 840 294C840 301.732 833.732 308 826 308C818.268 308 812 301.732 812 294C812 286.268 818.268 280 826 280Z" fill="black"/>
<path d="M854 280C861.732 280 868 286.268 868 294C868 301.732 861.732 308 854 308C846.268 308 840 301.732 840 294C840 286.268 846.268 280 854 280Z" fill="black"/>
<path d="M882 280C889.732 280 896 286.268 896 294C896 301.732 889.732 308 882 308C874.268 308 868 301.732 868 294C868 286.268 874.268 280 882 280Z" fill="black"/>
<path d="M938 280C945.732 280 952 286.268 952 294C952 301.732 945.732 308 938 308C930.268 308 924 301.732 924 294C924 286.268 930.268 280 938 280Z" fill="black"/>
<path d="M966 280C973.732 280 980 286.268 980 294C980 301.732 973.732 308 966 308C958.268 308 952 301.732 952 294C952 286.268 958.268 280 966 280Z" fill="black"/>
<path d="M994 280C1001.73 280 1008 286.268 1008 294C1008 301.732 1001.73 308 994 308C986.268 308 980 301.732 980 294C980 286.268 986.268 280 994 280Z" fill="black"/>
<path d="M1022 280C1029.73 280 1036 286.268 1036 294C1036 301.732 1029.73 308 1022 308C1014.27 308 1008 301.732 1008 294C1008 286.268 1014.27 280 1022 280Z" fill="black"/>
<path d="M1050 280C1057.73 280 1064 286.268 1064 294C1064 301.732 1057.73 308 1050 308C1042.27 308 1036 301.732 1036 294C1036 286.268 1042.27 280 1050 280Z" fill="black"/>
<path d="M70 308C77.7323 308 84 314.268 84 322C84 329.732 77.7323 336 70 336C62.2681 336 56 329.732 56 322C56 314.268 62.2681 308 70 308Z" fill="black"/>
<path d="M126 308C133.732 308 140 314.268 140 322C140 329.732 133.732 336 126 336C118.268 336 112 329.732 112 322C112 314.268 118.268 308 126 308Z" fill="black"/>
<path d="M210 308C217.732 308 224 314.268 224 322C224 329.732 217.732 336 210 336C202.268 336 196 329.732 196 322C196 314.268 202.268 308 210 308Z" fill="black"/>
<path d="M266 308C273.732 308 280 314.268 280 322C280 329.732 273.732 336 266 336C258.268 336 252 329.732 252 322C252 314.268 258.268 308 266 308Z" fill="black"/>
<path d="M294 308C301.732 308 308 314.268 308 322C308 329.732 301.732 336 294 336C286.268 336 280 329.732 280 322C280 314.268 286.268 308 294 308Z" fill="black"/>
<path d="M350 308C357.732 308 364 314.268 364 322C364 329.732 357.732 336 350 336C342.268 336 336 329.732 336 322C336 314.268 342.268 308 350 308Z" fill="black"/>
<path d="M378 308C385.732 308 392 314.268 392 322C392 329.732 385.732 336 378 336C370.268 336 364 329.732 364 322C364 314.268 370.268 308 378 308Z" fill="black"/>
<path d="M462 308C469.732 308 476 314.268 476 322C476 329.732 469.732 336 462 336C454.268 336 448 329.732 448 322C448 314.268 454.268 308 462 308Z" fill="black"/>
<path d="M518 308C525.732 308 532 314.268 532 322C532 329.732 525.732 336 518 336C510.268 336 504 329.732 504 322C504 314.268 510.268 308 518 308Z" fill="black"/>
<path d="M686 308C693.732 308 700 314.268 700 322C700 329.732 693.732 336 686 336C678.268 336 672 329.732 672 322C672 314.268 678.268 308 686 308Z" fill="black"/>
<path d="M714 308C721.732 308 728 314.268 728 322C728 329.732 721.732 336 714 336C706.268 336 700 329.732 700 322C700 314.268 706.268 308 714 308Z" fill="black"/>
<path d="M798 308C805.732 308 812 314.268 812 322C812 329.732 805.732 336 798 336C790.268 336 784 329.732 784 322C784 314.268 790.268 308 798 308Z" fill="black"/>
<path d="M854 308C861.732 308 868 314.268 868 322C868 329.732 861.732 336 854 336C846.268 336 840 329.732 840 322C840 314.268 846.268 308 854 308Z" fill="black"/>
<path d="M882 308C889.732 308 896 314.268 896 322C896 329.732 889.732 336 882 336C874.268 336 868 329.732 868 322C868 314.268 874.268 308 882 308Z" fill="black"/>
<path d="M910 308C917.732 308 924 314.268 924 322C924 329.732 917.732 336 910 336C902.268 336 896 329.732 896 322C896 314.268 902.268 308 910 308Z" fill="black"/>
<path d="M938 308C945.732 308 952 314.268 952 322C952 329.732 945.732 336 938 336C930.268 336 924 329.732 924 322C924 314.268 930.268 308 938 308Z" fill="black"/>
<path d="M994 308C1001.73 308 1008 314.268 1008 322C1008 329.732 1001.73 336 994 336C986.268 336 980 329.732 980 322C980 314.268 986.268 308 994 308Z" fill="black"/>
<path d="M1078 308C1085.73 308 1092 314.268 1092 322C1092 329.732 1085.73 336 1078 336C1070.27 336 1064 329.732 1064 322C1064 314.268 1070.27 308 1078 308Z" fill="black"/>
<path d="M70 336C77.7323 336 84 342.268 84 350C84 357.732 77.7323 364 70 364C62.2681 364 56 357.732 56 350C56 342.268 62.2681 336 70 336Z" fill="black"/>
<path d="M98 336C105.732 336 112 342.268 112 350C112 357.732 105.732 364 98 364C90.2681 364 84 357.732 84 350C84 342.268 90.2681 336 98 336Z" fill="black"/>
<path d="M182 336C189.732 336 196 342.268 196 350C196 357.732 189.732 364 182 364C174.268 364 168 357.732 168 350C168 342.268 174.268 336 182 336Z" fill="black"/>
<path d="M238 336C245.732 336 252 342.268 252 350C252 357.732 245.732 364 238 364C230.268 364 224 357.732 224 350C224 342.268 230.268 336 238 336Z" fill="black"/>
<path d="M350 336C357.732 336 364 342.268 364 350C364 357.732 357.732 364 350 364C342.268 364 336 357.732 336 350C336 342.268 342.268 336 350 336Z" fill="black"/>
<path d="M378 336C385.732 336 392 342.268 392 350C392 357.732 385.732 364 378 364C370.268 364 364 357.732 364 350C364 342.268 370.268 336 378 336Z" fill="black"/>
<path d="M406 336C413.732 336 420 342.268 420 350C420 357.732 413.732 364 406 364C398.268 364 392 357.732 392 350C392 342.268 398.268 336 406 336Z" fill="black"/>
<path d="M434 336C441.732 336 448 342.268 448 350C448 357.732 441.732 364 434 364C426.268 364 420 357.732 420 350C420 342.268 426.268 336 434 336Z" fill="black"/>
<path d="M490 336C497.732 336 504 342.268 504 350C504 357.732 497.732 364 490 364C482.268 364 476 357.732 476 350C476 342.268 482.268 336 490 336Z" fill="black"/>
<path d="M518 336C525.732 336 532 342.268 532 350C532 357.732 525.732 364 518 364C510.268 364 504 357.732 504 350C504 342.268 510.268 336 518 336Z" fill="black"/>
<path d="M546 336C553.732 336 560 342.268 560 350C560 357.732 553.732 364 546 364C538.268 364 532 357.732 532 350C532 342.268 538.268 336 546 336Z" fill="black"/>
<path d="M574 336C581.732 336 588 342.268 588 350C588 357.732 581.732 364 574 364C566.268 364 560 357.732 560 350C560 342.268 566.268 336 574 336Z" fill="black"/>
<path d="M602 336C609.732 336 616 342.268 616 350C616 357.732 609.732 364 602 364C594.268 364 588 357.732 588 350C588 342.268 594.268 336 602 336Z" fill="black"/>
<path d="M658 336C665.732 336 672 342.268 672 350C672 357.732 665.732 364 658 364C650.268 364 644 357.732 644 350C644 342.268 650.268 336 658 336Z" fill="black"/>
<path d="M686 336C693.732 336 700 342.268 700 350C700 357.732 693.732 364 686 364C678.268 364 672 357.732 672 350C672 342.268 678.268 336 686 336Z" fill="black"/>
<path d="M770 336C777.732 336 784 342.268 784 350C784 357.732 777.732 364 770 364C762.268 364 756 357.732 756 350C756 342.268 762.268 336 770 336Z" fill="black"/>
<path d="M798 336C805.732 336 812 342.268 812 350C812 357.732 805.732 364 798 364C790.268 364 784 357.732 784 350C784 342.268 790.268 336 798 336Z" fill="black"/>
<path d="M826 336C833.732 336 840 342.268 840 350C840 357.732 833.732 364 826 364C818.268 364 812 357.732 812 350C812 342.268 818.268 336 826 336Z" fill="black"/>
<path d="M882 336C889.732 336 896 342.268 896 350C896 357.732 889.732 364 882 364C874.268 364 868 357.732 868 350C868 342.268 874.268 336 882 336Z" fill="black"/>
<path d="M994 336C1001.73 336 1008 342.268 1008 350C1008 357.732 1001.73 364 994 364C986.268 364 980 357.732 980 350C980 342.268 986.268 336 994 336Z" fill="black"/>
<path d="M1022 336C1029.73 336 1036 342.268 1036 350C1036 357.732 1029.73 364 1022 364C1014.27 364 1008 357.732 1008 350C1008 342.268 1014.27 336 1022 336Z" fill="black"/>
<path d="M1078 336C1085.73 336 1092 342.268 1092 350C1092 357.732 1085.73 364 1078 364C1070.27 364 1064 357.732 1064 350C1064 342.268 1070.27 336 1078 336Z" fill="black"/>
<path d="M126 364C133.732 364 140 370.268 140 378C140 385.732 133.732 392 126 392C118.268 392 112 385.732 112 378C112 370.268 118.268 364 126 364Z" fill="black"/>
<path d="M154 364C161.732 364 168 370.268 168 378C168 385.732 161.732 392 154 392C146.268 392 140 385.732 140 378C140 370.268 146.268 364 154 364Z" fill="black"/>
<path d="M210 364C217.732 364 224 370.268 224 378C224 385.732 217.732 392 210 392C202.268 392 196 385.732 196 378C196 370.268 202.268 364 210 364Z" fill="black"/>
<path d="M322 364C329.732 364 336 370.268 336 378C336 385.732 329.732 392 322 392C314.268 392 308 385.732 308 378C308 370.268 314.268 364 322 364Z" fill="black"/>
<path d="M378 364C385.732 364 392 370.268 392 378C392 385.732 385.732 392 378 392C370.268 392 364 385.732 364 378C364 370.268 370.268 364 378 364Z" fill="black"/>
<path d="M406 364C413.732 364 420 370.268 420 378C420 385.732 413.732 392 406 392C398.268 392 392 385.732 392 378C392 370.268 398.268 364 406 364Z" fill="black"/>
<path d="M546 364C553.732 364 560 370.268 560 378C560 385.732 553.732 392 546 392C538.268 392 532 385.732 532 378C532 370.268 538.268 364 546 364Z" fill="black"/>
<path d="M602 364C609.732 364 616 370.268 616 378C616 385.732 609.732 392 602 392C594.268 392 588 385.732 588 378C588 370.268 594.268 364 602 364Z" fill="black"/>
<path d="M630 364C637.732 364 644 370.268 644 378C644 385.732 637.732 392 630 392C622.268 392 616 385.732 616 378C616 370.268 622.268 364 630 364Z" fill="black"/>
<path d="M686 364C693.732 364 700 370.268 700 378C700 385.732 693.732 392 686 392C678.268 392 672 385.732 672 378C672 370.268 678.268 364 686 364Z" fill="black"/>
<path d="M714 364C721.732 364 728 370.268 728 378C728 385.732 721.732 392 714 392C706.268 392 700 385.732 700 378C700 370.268 706.268 364 714 364Z" fill="black"/>
<path d="M798 364C805.732 364 812 370.268 812 378C812 385.732 805.732 392 798 392C790.268 392 784 385.732 784 378C784 370.268 790.268 364 798 364Z" fill="black"/>
<path d="M910 364C917.732 364 924 370.268 924 378C924 385.732 917.732 392 910 392C902.268 392 896 385.732 896 378C896 370.268 902.268 364 910 364Z" fill="black"/>
<path d="M994 364C1001.73 364 1008 370.268 1008 378C1008 385.732 1001.73 392 994 392C986.268 392 980 385.732 980 378C980 370.268 986.268 364 994 364Z" fill="black"/>
<path d="M1078 364C1085.73 364 1092 370.268 1092 378C1092 385.732 1085.73 392 1078 392C1070.27 392 1064 385.732 1064 378C1064 370.268 1070.27 364 1078 364Z" fill="black"/>
<path d="M70 392C77.7323 392 84 398.268 84 406C84 413.732 77.7323 420 70 420C62.2681 420 56 413.732 56 406C56 398.268 62.2681 392 70 392Z" fill="black"/>
<path d="M98 392C105.732 392 112 398.268 112 406C112 413.732 105.732 420 98 420C90.2681 420 84 413.732 84 406C84 398.268 90.2681 392 98 392Z" fill="black"/>
<path d="M126 392C133.732 392 140 398.268 140 406C140 413.732 133.732 420 126 420C118.268 420 112 413.732 112 406C112 398.268 118.268 392 126 392Z" fill="black"/>
<path d="M154 392C161.732 392 168 398.268 168 406C168 413.732 161.732 420 154 420C146.268 420 140 413.732 140 406C140 398.268 146.268 392 154 392Z" fill="black"/>
<path d="M182 392C189.732 392 196 398.268 196 406C196 413.732 189.732 420 182 420C174.268 420 168 413.732 168 406C168 398.268 174.268 392 182 392Z" fill="black"/>
<path d="M210 392C217.732 392 224 398.268 224 406C224 413.732 217.732 420 210 420C202.268 420 196 413.732 196 406C196 398.268 202.268 392 210 392Z" fill="black"/>
<path d="M238 392C245.732 392 252 398.268 252 406C252 413.732 245.732 420 238 420C230.268 420 224 413.732 224 406C224 398.268 230.268 392 238 392Z" fill="black"/>
<path d="M322 392C329.732 392 336 398.268 336 406C336 413.732 329.732 420 322 420C314.268 420 308 413.732 308 406C308 398.268 314.268 392 322 392Z" fill="black"/>
<path d="M350 392C357.732 392 364 398.268 364 406C364 413.732 357.732 420 350 420C342.268 420 336 413.732 336 406C336 398.268 342.268 392 350 392Z" fill="black"/>
<path d="M434 392C441.732 392 448 398.268 448 406C448 413.732 441.732 420 434 420C426.268 420 420 413.732 420 406C420 398.268 426.268 392 434 392Z" fill="black"/>
<path d="M462 392C469.732 392 476 398.268 476 406C476 413.732 469.732 420 462 420C454.268 420 448 413.732 448 406C448 398.268 454.268 392 462 392Z" fill="black"/>
<path d="M490 392C497.732 392 504 398.268 504 406C504 413.732 497.732 420 490 420C482.268 420 476 413.732 476 406C476 398.268 482.268 392 490 392Z" fill="black"/>
<path d="M518 392C525.732 392 532 398.268 532 406C532 413.732 525.732 420 518 420C510.268 420 504 413.732 504 406C504 398.268 510.268 392 518 392Z" fill="black"/>
<path d="M546 392C553.732 392 560 398.268 560 406C560 413.732 553.732 420 546 420C538.268 420 532 413.732 532 406C532 398.268 538.268 392 546 392Z" fill="black"/>
<path d="M574 392C581.732 392 588 398.268 588 406C588 413.732 581.732 420 574 420C566.268 420 560 413.732 560 406C560 398.268 566.268 392 574 392Z" fill="black"/>
<path d="M630 392C637.732 392 644 398.268 644 406C644 413.732 637.732 420 630 420C622.268 420 616 413.732 616 406C616 398.268 622.268 392 630 392Z" fill="black"/>
<path d="M686 392C693.732 392 700 398.268 700 406C700 413.732 693.732 420 686 420C678.268 420 672 413.732 672 406C672 398.268 678.268 392 686 392Z" fill="black"/>
<path d="M854 392C861.732 392 868 398.268 868 406C868 413.732 861.732 420 854 420C846.268 420 840 413.732 840 406C840 398.268 846.268 392 854 392Z" fill="black"/>
<path d="M882 392C889.732 392 896 398.268 896 406C896 413.732 889.732 420 882 420C874.268 420 868 413.732 868 406C868 398.268 874.268 392 882 392Z" fill="black"/>
<path d="M910 392C917.732 392 924 398.268 924 406C924 413.732 917.732 420 910 420C902.268 420 896 413.732 896 406C896 398.268 902.268 392 910 392Z" fill="black"/>
<path d="M994 392C1001.73 392 1008 398.268 1008 406C1008 413.732 1001.73 420 994 420C986.268 420 980 413.732 980 406C980 398.268 986.268 392 994 392Z" fill="black"/>
<path d="M1050 392C1057.73 392 1064 398.268 1064 406C1064 413.732 1057.73 420 1050 420C1042.27 420 1036 413.732 1036 406C1036 398.268 1042.27 392 1050 392Z" fill="black"/>
<path d="M1078 392C1085.73 392 1092 398.268 1092 406C1092 413.732 1085.73 420 1078 420C1070.27 420 1064 413.732 1064 406C1064 398.268 1070.27 392 1078 392Z" fill="black"/>
<path d="M70 420C77.7323 420 84 426.268 84 434C84 441.732 77.7323 448 70 448C62.2681 448 56 441.732 56 434C56 426.268 62.2681 420 70 420Z" fill="black"/>
<path d="M126 420C133.732 420 140 426.268 140 434C140 441.732 133.732 448 126 448C118.268 448 112 441.732 112 434C112 426.268 118.268 420 126 420Z" fill="black"/>
<path d="M154 420C161.732 420 168 426.268 168 434C168 441.732 161.732 448 154 448C146.268 448 140 441.732 140 434C140 426.268 146.268 420 154 420Z" fill="black"/>
<path d="M182 420C189.732 420 196 426.268 196 434C196 441.732 189.732 448 182 448C174.268 448 168 441.732 168 434C168 426.268 174.268 420 182 420Z" fill="black"/>
<path d="M266 420C273.732 420 280 426.268 280 434C280 441.732 273.732 448 266 448C258.268 448 252 441.732 252 434C252 426.268 258.268 420 266 420Z" fill="black"/>
<path d="M294 420C301.732 420 308 426.268 308 434C308 441.732 301.732 448 294 448C286.268 448 280 441.732 280 434C280 426.268 286.268 420 294 420Z" fill="black"/>
<path d="M350 420C357.732 420 364 426.268 364 434C364 441.732 357.732 448 350 448C342.268 448 336 441.732 336 434C336 426.268 342.268 420 350 420Z" fill="black"/>
<path d="M378 420C385.732 420 392 426.268 392 434C392 441.732 385.732 448 378 448C370.268 448 364 441.732 364 434C364 426.268 370.268 420 378 420Z" fill="black"/>
<path d="M518 420C525.732 420 532 426.268 532 434C532 441.732 525.732 448 518 448C510.268 448 504 441.732 504 434C504 426.268 510.268 420 518 420Z" fill="black"/>
<path d="M546 420C553.732 420 560 426.268 560 434C560 441.732 553.732 448 546 448C538.268 448 532 441.732 532 434C532 426.268 538.268 420 546 420Z" fill="black"/>
<path d="M602 420C609.732 420 616 426.268 616 434C616 441.732 609.732 448 602 448C594.268 448 588 441.732 588 434C588 426.268 594.268 420 602 420Z" fill="black"/>
<path d="M714 420C721.732 420 728 426.268 728 434C728 441.732 721.732 448 714 448C706.268 448 700 441.732 700 434C700 426.268 706.268 420 714 420Z" fill="black"/>
<path d="M798 420C805.732 420 812 426.268 812 434C812 441.732 805.732 448 798 448C790.268 448 784 441.732 784 434C784 426.268 790.268 420 798 420Z" fill="black"/>
<path d="M826 420C833.732 420 840 426.268 840 434C840 441.732 833.732 448 826 448C818.268 448 812 441.732 812 434C812 426.268 818.268 420 826 420Z" fill="black"/>
<path d="M854 420C861.732 420 868 426.268 868 434C868 441.732 861.732 448 854 448C846.268 448 840 441.732 840 434C840 426.268 846.268 420 854 420Z" fill="black"/>
<path d="M910 420C917.732 420 924 426.268 924 434C924 441.732 917.732 448 910 448C902.268 448 896 441.732 896 434C896 426.268 902.268 420 910 420Z" fill="black"/>
<path d="M938 420C945.732 420 952 426.268 952 434C952 441.732 945.732 448 938 448C930.268 448 924 441.732 924 434C924 426.268 930.268 420 938 420Z" fill="black"/>
<path d="M994 420C1001.73 420 1008 426.268 1008 434C1008 441.732 1001.73 448 994 448C986.268 448 980 441.732 980 434C980 426.268 986.268 420 994 420Z" fill="black"/>
<path d="M1078 420C1085.73 420 1092 426.268 1092 434C1092 441.732 1085.73 448 1078 448C1070.27 448 1064 441.732 1064 434C1064 426.268 1070.27 420 1078 420Z" fill="black"/>
<path d="M98 448C105.732 448 112 454.268 112 462C112 469.732 105.732 476 98 476C90.2681 476 84 469.732 84 462C84 454.268 90.2681 448 98 448Z" fill="black"/>
<path d="M238 448C245.732 448 252 454.268 252 462C252 469.732 245.732 476 238 476C230.268 476 224 469.732 224 462C224 454.268 230.268 448 238 448Z" fill="black"/>
<path d="M266 448C273.732 448 280 454.268 280 462C280 469.732 273.732 476 266 476C258.268 476 252 469.732 252 462C252 454.268 258.268 448 266 448Z" fill="black"/>
<path d="M294 448C301.732 448 308 454.268 308 462C308 469.732 301.732 476 294 476C286.268 476 280 469.732 280 462C280 454.268 286.268 448 294 448Z" fill="black"/>
<path d="M322 448C329.732 448 336 454.268 336 462C336 469.732 329.732 476 322 476C314.268 476 308 469.732 308 462C308 454.268 314.268 448 322 448Z" fill="black"/>
<path d="M826 448C833.732 448 840 454.268 840 462C840 469.732 833.732 476 826 476C818.268 476 812 469.732 812 462C812 454.268 818.268 448 826 448Z" fill="black"/>
<path d="M938 448C945.732 448 952 454.268 952 462C952 469.732 945.732 476 938 476C930.268 476 924 469.732 924 462C924 454.268 930.268 448 938 448Z" fill="black"/>
<path d="M1022 448C1029.73 448 1036 454.268 1036 462C1036 469.732 1029.73 476 1022 476C1014.27 476 1008 469.732 1008 462C1008 454.268 1014.27 448 1022 448Z" fill="black"/>
<path d="M1078 448C1085.73 448 1092 454.268 1092 462C1092 469.732 1085.73 476 1078 476C1070.27 476 1064 469.732 1064 462C1064 454.268 1070.27 448 1078 448Z" fill="black"/>
<path d="M126 476C133.732 476 140 482.268 140 490C140 497.732 133.732 504 126 504C118.268 504 112 497.732 112 490C112 482.268 118.268 476 126 476Z" fill="black"/>
<path d="M182 476C189.732 476 196 482.268 196 490C196 497.732 189.732 504 182 504C174.268 504 168 497.732 168 490C168 482.268 174.268 476 182 476Z" fill="black"/>
<path d="M294 476C301.732 476 308 482.268 308 490C308 497.732 301.732 504 294 504C286.268 504 280 497.732 280 490C280 482.268 286.268 476 294 476Z" fill="black"/>
<path d="M854 476C861.732 476 868 482.268 868 490C868 497.732 861.732 504 854 504C846.268 504 840 497.732 840 490C840 482.268 846.268 476 854 476Z" fill="black"/>
<path d="M910 476C917.732 476 924 482.268 924 490C924 497.732 917.732 504 910 504C902.268 504 896 497.732 896 490C896 482.268 902.268 476 910 476Z" fill="black"/>
<path d="M938 476C945.732 476 952 482.268 952 490C952 497.732 945.732 504 938 504C930.268 504 924 497.732 924 490C924 482.268 930.268 476 938 476Z" fill="black"/>
<path d="M994 476C1001.73 476 1008 482.268 1008 490C1008 497.732 1001.73 504 994 504C986.268 504 980 497.732 980 490C980 482.268 986.268 476 994 476Z" fill="black"/>
<path d="M154 504C161.732 504 168 510.268 168 518C168 525.732 161.732 532 154 532C146.268 532 140 525.732 140 518C140 510.268 146.268 504 154 504Z" fill="black"/>
<path d="M238 504C245.732 504 252 510.268 252 518C252 525.732 245.732 532 238 532C230.268 532 224 525.732 224 518C224 510.268 230.268 504 238 504Z" fill="black"/>
<path d="M910 504C917.732 504 924 510.268 924 518C924 525.732 917.732 532 910 532C902.268 532 896 525.732 896 518C896 510.268 902.268 504 910 504Z" fill="black"/>
<path d="M938 504C945.732 504 952 510.268 952 518C952 525.732 945.732 532 938 532C930.268 532 924 525.732 924 518C924 510.268 930.268 504 938 504Z" fill="black"/>
<path d="M1050 504C1057.73 504 1064 510.268 1064 518C1064 525.732 1057.73 532 1050 532C1042.27 532 1036 525.732 1036 518C1036 510.268 1042.27 504 1050 504Z" fill="black"/>
<path d="M1078 504C1085.73 504 1092 510.268 1092 518C1092 525.732 1085.73 532 1078 532C1070.27 532 1064 525.732 1064 518C1064 510.268 1070.27 504 1078 504Z" fill="black"/>
<path d="M70 532C77.7323 532 84 538.268 84 546C84 553.732 77.7323 560 70 560C62.2681 560 56 553.732 56 546C56 538.268 62.2681 532 70 532Z" fill="black"/>
<path d="M98 532C105.732 532 112 538.268 112 546C112 553.732 105.732 560 98 560C90.2681 560 84 553.732 84 546C84 538.268 90.2681 532 98 532Z" fill="black"/>
<path d="M154 532C161.732 532 168 538.268 168 546C168 553.732 161.732 560 154 560C146.268 560 140 553.732 140 546C140 538.268 146.268 532 154 532Z" fill="black"/>
<path d="M210 532C217.732 532 224 538.268 224 546C224 553.732 217.732 560 210 560C202.268 560 196 553.732 196 546C196 538.268 202.268 532 210 532Z" fill="black"/>
<path d="M322 532C329.732 532 336 538.268 336 546C336 553.732 329.732 560 322 560C314.268 560 308 553.732 308 546C308 538.268 314.268 532 322 532Z" fill="black"/>
<path d="M826 532C833.732 532 840 538.268 840 546C840 553.732 833.732 560 826 560C818.268 560 812 553.732 812 546C812 538.268 818.268 532 826 532Z" fill="black"/>
<path d="M854 532C861.732 532 868 538.268 868 546C868 553.732 861.732 560 854 560C846.268 560 840 553.732 840 546C840 538.268 846.268 532 854 532Z" fill="black"/>
<path d="M882 532C889.732 532 896 538.268 896 546C896 553.732 889.732 560 882 560C874.268 560 868 553.732 868 546C868 538.268 874.268 532 882 532Z" fill="black"/>
<path d="M910 532C917.732 532 924 538.268 924 546C924 553.732 917.732 560 910 560C902.268 560 896 553.732 896 546C896 538.268 902.268 532 910 532Z" fill="black"/>
<path d="M938 532C945.732 532 952 538.268 952 546C952 553.732 945.732 560 938 560C930.268 560 924 553.732 924 546C924 538.268 930.268 532 938 532Z" fill="black"/>
<path d="M1050 532C1057.73 532 1064 538.268 1064 546C1064 553.732 1057.73 560 1050 560C1042.27 560 1036 553.732 1036 546C1036 538.268 1042.27 532 1050 532Z" fill="black"/>
<path d="M1078 532C1085.73 532 1092 538.268 1092 546C1092 553.732 1085.73 560 1078 560C1070.27 560 1064 553.732 1064 546C1064 538.268 1070.27 532 1078 532Z" fill="black"/>
<path d="M70 560C77.7323 560 84 566.268 84 574C84 581.732 77.7323 588 70 588C62.2681 588 56 581.732 56 574C56 566.268 62.2681 560 70 560Z" fill="black"/>
<path d="M126 560C133.732 560 140 566.268 140 574C140 581.732 133.732 588 126 588C118.268 588 112 581.732 112 574C112 566.268 118.268 560 126 560Z" fill="black"/>
<path d="M182 560C189.732 560 196 566.268 196 574C196 581.732 189.732 588 182 588C174.268 588 168 581.732 168 574C168 566.268 174.268 560 182 560Z" fill="black"/>
<path d="M210 560C217.732 560 224 566.268 224 574C224 581.732 217.732 588 210 588C202.268 588 196 581.732 196 574C196 566.268 202.268 560 210 560Z" fill="black"/>
<path d="M238 560C245.732 560 252 566.268 252 574C252 581.732 245.732 588 238 588C230.268 588 224 581.732 224 574C224 566.268 230.268 560 238 560Z" fill="black"/>
<path d="M294 560C301.732 560 308 566.268 308 574C308 581.732 301.732 588 294 588C286.268 588 280 581.732 280 574C280 566.268 286.268 560 294 560Z" fill="black"/>
<path d="M322 560C329.732 560 336 566.268 336 574C336 581.732 329.732 588 322 588C314.268 588 308 581.732 308 574C308 566.268 314.268 560 322 560Z" fill="black"/>
<path d="M826 560C833.732 560 840 566.268 840 574C840 581.732 833.732 588 826 588C818.268 588 812 581.732 812 574C812 566.268 818.268 560 826 560Z" fill="black"/>
<path d="M854 560C861.732 560 868 566.268 868 574C868 581.732 861.732 588 854 588C846.268 588 840 581.732 840 574C840 566.268 846.268 560 854 560Z" fill="black"/>
<path d="M882 560C889.732 560 896 566.268 896 574C896 581.732 889.732 588 882 588C874.268 588 868 581.732 868 574C868 566.268 874.268 560 882 560Z" fill="black"/>
<path d="M910 560C917.732 560 924 566.268 924 574C924 581.732 917.732 588 910 588C902.268 588 896 581.732 896 574C896 566.268 902.268 560 910 560Z" fill="black"/>
<path d="M966 560C973.732 560 980 566.268 980 574C980 581.732 973.732 588 966 588C958.268 588 952 581.732 952 574C952 566.268 958.268 560 966 560Z" fill="black"/>
<path d="M1022 560C1029.73 560 1036 566.268 1036 574C1036 581.732 1029.73 588 1022 588C1014.27 588 1008 581.732 1008 574C1008 566.268 1014.27 560 1022 560Z" fill="black"/>
<path d="M1078 560C1085.73 560 1092 566.268 1092 574C1092 581.732 1085.73 588 1078 588C1070.27 588 1064 581.732 1064 574C1064 566.268 1070.27 560 1078 560Z" fill="black"/>
<path d="M70 588C77.7323 588 84 594.268 84 602C84 609.732 77.7323 616 70 616C62.2681 616 56 609.732 56 602C56 594.268 62.2681 588 70 588Z" fill="black"/>
<path d="M126 588C133.732 588 140 594.268 140 602C140 609.732 133.732 616 126 616C118.268 616 112 609.732 112 602C112 594.268 118.268 588 126 588Z" fill="black"/>
<path d="M182 588C189.732 588 196 594.268 196 602C196 609.732 189.732 616 182 616C174.268 616 168 609.732 168 602C168 594.268 174.268 588 182 588Z" fill="black"/>
<path d="M294 588C301.732 588 308 594.268 308 602C308 609.732 301.732 616 294 616C286.268 616 280 609.732 280 602C280 594.268 286.268 588 294 588Z" fill="black"/>
<path d="M322 588C329.732 588 336 594.268 336 602C336 609.732 329.732 616 322 616C314.268 616 308 609.732 308 602C308 594.268 314.268 588 322 588Z" fill="black"/>
<path d="M854 588C861.732 588 868 594.268 868 602C868 609.732 861.732 616 854 616C846.268 616 840 609.732 840 602C840 594.268 846.268 588 854 588Z" fill="black"/>
<path d="M966 588C973.732 588 980 594.268 980 602C980 609.732 973.732 616 966 616C958.268 616 952 609.732 952 602C952 594.268 958.268 588 966 588Z" fill="black"/>
<path d="M1078 588C1085.73 588 1092 594.268 1092 602C1092 609.732 1085.73 616 1078 616C1070.27 616 1064 609.732 1064 602C1064 594.268 1070.27 588 1078 588Z" fill="black"/>
<path d="M126 616C133.732 616 140 622.268 140 630C140 637.732 133.732 644 126 644C118.268 644 112 637.732 112 630C112 622.268 118.268 616 126 616Z" fill="black"/>
<path d="M182 616C189.732 616 196 622.268 196 630C196 637.732 189.732 644 182 644C174.268 644 168 637.732 168 630C168 622.268 174.268 616 182 616Z" fill="black"/>
<path d="M238 616C245.732 616 252 622.268 252 630C252 637.732 245.732 644 238 644C230.268 644 224 637.732 224 630C224 622.268 230.268 616 238 616Z" fill="black"/>
<path d="M294 616C301.732 616 308 622.268 308 630C308 637.732 301.732 644 294 644C286.268 644 280 637.732 280 630C280 622.268 286.268 616 294 616Z" fill="black"/>
<path d="M910 616C917.732 616 924 622.268 924 630C924 637.732 917.732 644 910 644C902.268 644 896 637.732 896 630C896 622.268 902.268 616 910 616Z" fill="black"/>
<path d="M1050 616C1057.73 616 1064 622.268 1064 630C1064 637.732 1057.73 644 1050 644C1042.27 644 1036 637.732 1036 630C1036 622.268 1042.27 616 1050 616Z" fill="black"/>
<path d="M70 644C77.7323 644 84 650.268 84 658C84 665.732 77.7323 672 70 672C62.2681 672 56 665.732 56 658C56 650.268 62.2681 644 70 644Z" fill="black"/>
<path d="M98 644C105.732 644 112 650.268 112 658C112 665.732 105.732 672 98 672C90.2681 672 84 665.732 84 658C84 650.268 90.2681 644 98 644Z" fill="black"/>
<path d="M154 644C161.732 644 168 650.268 168 658C168 665.732 161.732 672 154 672C146.268 672 140 665.732 140 658C140 650.268 146.268 644 154 644Z" fill="black"/>
<path d="M182 644C189.732 644 196 650.268 196 658C196 665.732 189.732 672 182 672C174.268 672 168 665.732 168 658C168 650.268 174.268 644 182 644Z" fill="black"/>
<path d="M210 644C217.732 644 224 650.268 224 658C224 665.732 217.732 672 210 672C202.268 672 196 665.732 196 658C196 650.268 202.268 644 210 644Z" fill="black"/>
<path d="M266 644C273.732 644 280 650.268 280 658C280 665.732 273.732 672 266 672C258.268 672 252 665.732 252 658C252 650.268 258.268 644 266 644Z" fill="black"/>
<path d="M294 644C301.732 644 308 650.268 308 658C308 665.732 301.732 672 294 672C286.268 672 280 665.732 280 658C280 650.268 286.268 644 294 644Z" fill="black"/>
<path d="M322 644C329.732 644 336 650.268 336 658C336 665.732 329.732 672 322 672C314.268 672 308 665.732 308 658C308 650.268 314.268 644 322 644Z" fill="black"/>
<path d="M826 644C833.732 644 840 650.268 840 658C840 665.732 833.732 672 826 672C818.268 672 812 665.732 812 658C812 650.268 818.268 644 826 644Z" fill="black"/>
<path d="M854 644C861.732 644 868 650.268 868 658C868 665.732 861.732 672 854 672C846.268 672 840 665.732 840 658C840 650.268 846.268 644 854 644Z" fill="black"/>
<path d="M910 644C917.732 644 924 650.268 924 658C924 665.732 917.732 672 910 672C902.268 672 896 665.732 896 658C896 650.268 902.268 644 910 644Z" fill="black"/>
<path d="M994 644C1001.73 644 1008 650.268 1008 658C1008 665.732 1001.73 672 994 672C986.268 672 980 665.732 980 658C980 650.268 986.268 644 994 644Z" fill="black"/>
<path d="M1022 644C1029.73 644 1036 650.268 1036 658C1036 665.732 1029.73 672 1022 672C1014.27 672 1008 665.732 1008 658C1008 650.268 1014.27 644 1022 644Z" fill="black"/>
<path d="M1050 644C1057.73 644 1064 650.268 1064 658C1064 665.732 1057.73 672 1050 672C1042.27 672 1036 665.732 1036 658C1036 650.268 1042.27 644 1050 644Z" fill="black"/>
<path d="M1078 644C1085.73 644 1092 650.268 1092 658C1092 665.732 1085.73 672 1078 672C1070.27 672 1064 665.732 1064 658C1064 650.268 1070.27 644 1078 644Z" fill="black"/>
<path d="M70 672C77.7323 672 84 678.268 84 686C84 693.732 77.7323 700 70 700C62.2681 700 56 693.732 56 686C56 678.268 62.2681 672 70 672Z" fill="black"/>
<path d="M126 672C133.732 672 140 678.268 140 686C140 693.732 133.732 700 126 700C118.268 700 112 693.732 112 686C112 678.268 118.268 672 126 672Z" fill="black"/>
<path d="M154 672C161.732 672 168 678.268 168 686C168 693.732 161.732 700 154 700C146.268 700 140 693.732 140 686C140 678.268 146.268 672 154 672Z" fill="black"/>
<path d="M238 672C245.732 672 252 678.268 252 686C252 693.732 245.732 700 238 700C230.268 700 224 693.732 224 686C224 678.268 230.268 672 238 672Z" fill="black"/>
<path d="M294 672C301.732 672 308 678.268 308 686C308 693.732 301.732 700 294 700C286.268 700 280 693.732 280 686C280 678.268 286.268 672 294 672Z" fill="black"/>
<path d="M826 672C833.732 672 840 678.268 840 686C840 693.732 833.732 700 826 700C818.268 700 812 693.732 812 686C812 678.268 818.268 672 826 672Z" fill="black"/>
<path d="M910 672C917.732 672 924 678.268 924 686C924 693.732 917.732 700 910 700C902.268 700 896 693.732 896 686C896 678.268 902.268 672 910 672Z" fill="black"/>
<path d="M966 672C973.732 672 980 678.268 980 686C980 693.732 973.732 700 966 700C958.268 700 952 693.732 952 686C952 678.268 958.268 672 966 672Z" fill="black"/>
<path d="M1078 672C1085.73 672 1092 678.268 1092 686C1092 693.732 1085.73 700 1078 700C1070.27 700 1064 693.732 1064 686C1064 678.268 1070.27 672 1078 672Z" fill="black"/>
<path d="M182 700C189.732 700 196 706.268 196 714C196 721.732 189.732 728 182 728C174.268 728 168 721.732 168 714C168 706.268 174.268 700 182 700Z" fill="black"/>
<path d="M462 700C469.732 700 476 706.268 476 714C476 721.732 469.732 728 462 728C454.268 728 448 721.732 448 714C448 706.268 454.268 700 462 700Z" fill="black"/>
<path d="M574 700C581.732 700 588 706.268 588 714C588 721.732 581.732 728 574 728C566.268 728 560 721.732 560 714C560 706.268 566.268 700 574 700Z" fill="black"/>
<path d="M602 700C609.732 700 616 706.268 616 714C616 721.732 609.732 728 602 728C594.268 728 588 721.732 588 714C588 706.268 594.268 700 602 700Z" fill="black"/>
<path d="M630 700C637.732 700 644 706.268 644 714C644 721.732 637.732 728 630 728C622.268 728 616 721.732 616 714C616 706.268 622.268 700 630 700Z" fill="black"/>
<path d="M658 700C665.732 700 672 706.268 672 714C672 721.732 665.732 728 658 728C650.268 728 644 721.732 644 714C644 706.268 650.268 700 658 700Z" fill="black"/>
<path d="M714 700C721.732 700 728 706.268 728 714C728 721.732 721.732 728 714 728C706.268 728 700 721.732 700 714C700 706.268 706.268 700 714 700Z" fill="black"/>
<path d="M742 700C749.732 700 756 706.268 756 714C756 721.732 749.732 728 742 728C734.268 728 728 721.732 728 714C728 706.268 734.268 700 742 700Z" fill="black"/>
<path d="M826 700C833.732 700 840 706.268 840 714C840 721.732 833.732 728 826 728C818.268 728 812 721.732 812 714C812 706.268 818.268 700 826 700Z" fill="black"/>
<path d="M854 700C861.732 700 868 706.268 868 714C868 721.732 861.732 728 854 728C846.268 728 840 721.732 840 714C840 706.268 846.268 700 854 700Z" fill="black"/>
<path d="M882 700C889.732 700 896 706.268 896 714C896 721.732 889.732 728 882 728C874.268 728 868 721.732 868 714C868 706.268 874.268 700 882 700Z" fill="black"/>
<path d="M966 700C973.732 700 980 706.268 980 714C980 721.732 973.732 728 966 728C958.268 728 952 721.732 952 714C952 706.268 958.268 700 966 700Z" fill="black"/>
<path d="M994 700C1001.73 700 1008 706.268 1008 714C1008 721.732 1001.73 728 994 728C986.268 728 980 721.732 980 714C980 706.268 986.268 700 994 700Z" fill="black"/>
<path d="M1050 700C1057.73 700 1064 706.268 1064 714C1064 721.732 1057.73 728 1050 728C1042.27 728 1036 721.732 1036 714C1036 706.268 1042.27 700 1050 700Z" fill="black"/>
<path d="M182 728C189.732 728 196 734.268 196 742C196 749.732 189.732 756 182 756C174.268 756 168 749.732 168 742C168 734.268 174.268 728 182 728Z" fill="black"/>
<path d="M238 728C245.732 728 252 734.268 252 742C252 749.732 245.732 756 238 756C230.268 756 224 749.732 224 742C224 734.268 230.268 728 238 728Z" fill="black"/>
<path d="M294 728C301.732 728 308 734.268 308 742C308 749.732 301.732 756 294 756C286.268 756 280 749.732 280 742C280 734.268 286.268 728 294 728Z" fill="black"/>
<path d="M322 728C329.732 728 336 734.268 336 742C336 749.732 329.732 756 322 756C314.268 756 308 749.732 308 742C308 734.268 314.268 728 322 728Z" fill="black"/>
<path d="M378 728C385.732 728 392 734.268 392 742C392 749.732 385.732 756 378 756C370.268 756 364 749.732 364 742C364 734.268 370.268 728 378 728Z" fill="black"/>
<path d="M490 728C497.732 728 504 734.268 504 742C504 749.732 497.732 756 490 756C482.268 756 476 749.732 476 742C476 734.268 482.268 728 490 728Z" fill="black"/>
<path d="M546 728C553.732 728 560 734.268 560 742C560 749.732 553.732 756 546 756C538.268 756 532 749.732 532 742C532 734.268 538.268 728 546 728Z" fill="black"/>
<path d="M602 728C609.732 728 616 734.268 616 742C616 749.732 609.732 756 602 756C594.268 756 588 749.732 588 742C588 734.268 594.268 728 602 728Z" fill="black"/>
<path d="M630 728C637.732 728 644 734.268 644 742C644 749.732 637.732 756 630 756C622.268 756 616 749.732 616 742C616 734.268 622.268 728 630 728Z" fill="black"/>
<path d="M714 728C721.732 728 728 734.268 728 742C728 749.732 721.732 756 714 756C706.268 756 700 749.732 700 742C700 734.268 706.268 728 714 728Z" fill="black"/>
<path d="M770 728C777.732 728 784 734.268 784 742C784 749.732 777.732 756 770 756C762.268 756 756 749.732 756 742C756 734.268 762.268 728 770 728Z" fill="black"/>
<path d="M798 728C805.732 728 812 734.268 812 742C812 749.732 805.732 756 798 756C790.268 756 784 749.732 784 742C784 734.268 790.268 728 798 728Z" fill="black"/>
<path d="M854 728C861.732 728 868 734.268 868 742C868 749.732 861.732 756 854 756C846.268 756 840 749.732 840 742C840 734.268 846.268 728 854 728Z" fill="black"/>
<path d="M882 728C889.732 728 896 734.268 896 742C896 749.732 889.732 756 882 756C874.268 756 868 749.732 868 742C868 734.268 874.268 728 882 728Z" fill="black"/>
<path d="M910 728C917.732 728 924 734.268 924 742C924 749.732 917.732 756 910 756C902.268 756 896 749.732 896 742C896 734.268 902.268 728 910 728Z" fill="black"/>
<path d="M938 728C945.732 728 952 734.268 952 742C952 749.732 945.732 756 938 756C930.268 756 924 749.732 924 742C924 734.268 930.268 728 938 728Z" fill="black"/>
<path d="M994 728C1001.73 728 1008 734.268 1008 742C1008 749.732 1001.73 756 994 756C986.268 756 980 749.732 980 742C980 734.268 986.268 728 994 728Z" fill="black"/>
<path d="M1078 728C1085.73 728 1092 734.268 1092 742C1092 749.732 1085.73 756 1078 756C1070.27 756 1064 749.732 1064 742C1064 734.268 1070.27 728 1078 728Z" fill="black"/>
<path d="M126 756C133.732 756 140 762.268 140 770C140 777.732 133.732 784 126 784C118.268 784 112 777.732 112 770C112 762.268 118.268 756 126 756Z" fill="black"/>
<path d="M266 756C273.732 756 280 762.268 280 770C280 777.732 273.732 784 266 784C258.268 784 252 777.732 252 770C252 762.268 258.268 756 266 756Z" fill="black"/>
<path d="M350 756C357.732 756 364 762.268 364 770C364 777.732 357.732 784 350 784C342.268 784 336 777.732 336 770C336 762.268 342.268 756 350 756Z" fill="black"/>
<path d="M406 756C413.732 756 420 762.268 420 770C420 777.732 413.732 784 406 784C398.268 784 392 777.732 392 770C392 762.268 398.268 756 406 756Z" fill="black"/>
<path d="M462 756C469.732 756 476 762.268 476 770C476 777.732 469.732 784 462 784C454.268 784 448 777.732 448 770C448 762.268 454.268 756 462 756Z" fill="black"/>
<path d="M490 756C497.732 756 504 762.268 504 770C504 777.732 497.732 784 490 784C482.268 784 476 777.732 476 770C476 762.268 482.268 756 490 756Z" fill="black"/>
<path d="M574 756C581.732 756 588 762.268 588 770C588 777.732 581.732 784 574 784C566.268 784 560 777.732 560 770C560 762.268 566.268 756 574 756Z" fill="black"/>
<path d="M602 756C609.732 756 616 762.268 616 770C616 777.732 609.732 784 602 784C594.268 784 588 777.732 588 770C588 762.268 594.268 756 602 756Z" fill="black"/>
<path d="M630 756C637.732 756 644 762.268 644 770C644 777.732 637.732 784 630 784C622.268 784 616 777.732 616 770C616 762.268 622.268 756 630 756Z" fill="black"/>
<path d="M770 756C777.732 756 784 762.268 784 770C784 777.732 777.732 784 770 784C762.268 784 756 777.732 756 770C756 762.268 762.268 756 770 756Z" fill="black"/>
<path d="M854 756C861.732 756 868 762.268 868 770C868 777.732 861.732 784 854 784C846.268 784 840 777.732 840 770C840 762.268 846.268 756 854 756Z" fill="black"/>
<path d="M882 756C889.732 756 896 762.268 896 770C896 777.732 889.732 784 882 784C874.268 784 868 777.732 868 770C868 762.268 874.268 756 882 756Z" fill="black"/>
<path d="M910 756C917.732 756 924 762.268 924 770C924 777.732 917.732 784 910 784C902.268 784 896 777.732 896 770C896 762.268 902.268 756 910 756Z" fill="black"/>
<path d="M938 756C945.732 756 952 762.268 952 770C952 777.732 945.732 784 938 784C930.268 784 924 777.732 924 770C924 762.268 930.268 756 938 756Z" fill="black"/>
<path d="M994 756C1001.73 756 1008 762.268 1008 770C1008 777.732 1001.73 784 994 784C986.268 784 980 777.732 980 770C980 762.268 986.268 756 994 756Z" fill="black"/>
<path d="M1078 756C1085.73 756 1092 762.268 1092 770C1092 777.732 1085.73 784 1078 784C1070.27 784 1064 777.732 1064 770C1064 762.268 1070.27 756 1078 756Z" fill="black"/>
<path d="M70 784C77.7323 784 84 790.268 84 798C84 805.732 77.7323 812 70 812C62.2681 812 56 805.732 56 798C56 790.268 62.2681 784 70 784Z" fill="black"/>
<path d="M98 784C105.732 784 112 790.268 112 798C112 805.732 105.732 812 98 812C90.2681 812 84 805.732 84 798C84 790.268 90.2681 784 98 784Z" fill="black"/>
<path d="M182 784C189.732 784 196 790.268 196 798C196 805.732 189.732 812 182 812C174.268 812 168 805.732 168 798C168 790.268 174.268 784 182 784Z" fill="black"/>
<path d="M238 784C245.732 784 252 790.268 252 798C252 805.732 245.732 812 238 812C230.268 812 224 805.732 224 798C224 790.268 230.268 784 238 784Z" fill="black"/>
<path d="M350 784C357.732 784 364 790.268 364 798C364 805.732 357.732 812 350 812C342.268 812 336 805.732 336 798C336 790.268 342.268 784 350 784Z" fill="black"/>
<path d="M378 784C385.732 784 392 790.268 392 798C392 805.732 385.732 812 378 812C370.268 812 364 805.732 364 798C364 790.268 370.268 784 378 784Z" fill="black"/>
<path d="M406 784C413.732 784 420 790.268 420 798C420 805.732 413.732 812 406 812C398.268 812 392 805.732 392 798C392 790.268 398.268 784 406 784Z" fill="black"/>
<path d="M462 784C469.732 784 476 790.268 476 798C476 805.732 469.732 812 462 812C454.268 812 448 805.732 448 798C448 790.268 454.268 784 462 784Z" fill="black"/>
<path d="M490 784C497.732 784 504 790.268 504 798C504 805.732 497.732 812 490 812C482.268 812 476 805.732 476 798C476 790.268 482.268 784 490 784Z" fill="black"/>
<path d="M574 784C581.732 784 588 790.268 588 798C588 805.732 581.732 812 574 812C566.268 812 560 805.732 560 798C560 790.268 566.268 784 574 784Z" fill="black"/>
<path d="M602 784C609.732 784 616 790.268 616 798C616 805.732 609.732 812 602 812C594.268 812 588 805.732 588 798C588 790.268 594.268 784 602 784Z" fill="black"/>
<path d="M686 784C693.732 784 700 790.268 700 798C700 805.732 693.732 812 686 812C678.268 812 672 805.732 672 798C672 790.268 678.268 784 686 784Z" fill="black"/>
<path d="M714 784C721.732 784 728 790.268 728 798C728 805.732 721.732 812 714 812C706.268 812 700 805.732 700 798C700 790.268 706.268 784 714 784Z" fill="black"/>
<path d="M770 784C777.732 784 784 790.268 784 798C784 805.732 777.732 812 770 812C762.268 812 756 805.732 756 798C756 790.268 762.268 784 770 784Z" fill="black"/>
<path d="M798 784C805.732 784 812 790.268 812 798C812 805.732 805.732 812 798 812C790.268 812 784 805.732 784 798C784 790.268 790.268 784 798 784Z" fill="black"/>
<path d="M826 784C833.732 784 840 790.268 840 798C840 805.732 833.732 812 826 812C818.268 812 812 805.732 812 798C812 790.268 818.268 784 826 784Z" fill="black"/>
<path d="M938 784C945.732 784 952 790.268 952 798C952 805.732 945.732 812 938 812C930.268 812 924 805.732 924 798C924 790.268 930.268 784 938 784Z" fill="black"/>
<path d="M1022 784C1029.73 784 1036 790.268 1036 798C1036 805.732 1029.73 812 1022 812C1014.27 812 1008 805.732 1008 798C1008 790.268 1014.27 784 1022 784Z" fill="black"/>
<path d="M1078 784C1085.73 784 1092 790.268 1092 798C1092 805.732 1085.73 812 1078 812C1070.27 812 1064 805.732 1064 798C1064 790.268 1070.27 784 1078 784Z" fill="black"/>
<path d="M126 812C133.732 812 140 818.268 140 826C140 833.732 133.732 840 126 840C118.268 840 112 833.732 112 826C112 818.268 118.268 812 126 812Z" fill="black"/>
<path d="M154 812C161.732 812 168 818.268 168 826C168 833.732 161.732 840 154 840C146.268 840 140 833.732 140 826C140 818.268 146.268 812 154 812Z" fill="black"/>
<path d="M182 812C189.732 812 196 818.268 196 826C196 833.732 189.732 840 182 840C174.268 840 168 833.732 168 826C168 818.268 174.268 812 182 812Z" fill="black"/>
<path d="M210 812C217.732 812 224 818.268 224 826C224 833.732 217.732 840 210 840C202.268 840 196 833.732 196 826C196 818.268 202.268 812 210 812Z" fill="black"/>
<path d="M266 812C273.732 812 280 818.268 280 826C280 833.732 273.732 840 266 840C258.268 840 252 833.732 252 826C252 818.268 258.268 812 266 812Z" fill="black"/>
<path d="M294 812C301.732 812 308 818.268 308 826C308 833.732 301.732 840 294 840C286.268 840 280 833.732 280 826C280 818.268 286.268 812 294 812Z" fill="black"/>
<path d="M322 812C329.732 812 336 818.268 336 826C336 833.732 329.732 840 322 840C314.268 840 308 833.732 308 826C308 818.268 314.268 812 322 812Z" fill="black"/>
<path d="M350 812C357.732 812 364 818.268 364 826C364 833.732 357.732 840 350 840C342.268 840 336 833.732 336 826C336 818.268 342.268 812 350 812Z" fill="black"/>
<path d="M378 812C385.732 812 392 818.268 392 826C392 833.732 385.732 840 378 840C370.268 840 364 833.732 364 826C364 818.268 370.268 812 378 812Z" fill="black"/>
<path d="M518 812C525.732 812 532 818.268 532 826C532 833.732 525.732 840 518 840C510.268 840 504 833.732 504 826C504 818.268 510.268 812 518 812Z" fill="black"/>
<path d="M546 812C553.732 812 560 818.268 560 826C560 833.732 553.732 840 546 840C538.268 840 532 833.732 532 826C532 818.268 538.268 812 546 812Z" fill="black"/>
<path d="M658 812C665.732 812 672 818.268 672 826C672 833.732 665.732 840 658 840C650.268 840 644 833.732 644 826C644 818.268 650.268 812 658 812Z" fill="black"/>
<path d="M798 812C805.732 812 812 818.268 812 826C812 833.732 805.732 840 798 840C790.268 840 784 833.732 784 826C784 818.268 790.268 812 798 812Z" fill="black"/>
<path d="M854 812C861.732 812 868 818.268 868 826C868 833.732 861.732 840 854 840C846.268 840 840 833.732 840 826C840 818.268 846.268 812 854 812Z" fill="black"/>
<path d="M882 812C889.732 812 896 818.268 896 826C896 833.732 889.732 840 882 840C874.268 840 868 833.732 868 826C868 818.268 874.268 812 882 812Z" fill="black"/>
<path d="M910 812C917.732 812 924 818.268 924 826C924 833.732 917.732 840 910 840C902.268 840 896 833.732 896 826C896 818.268 902.268 812 910 812Z" fill="black"/>
<path d="M938 812C945.732 812 952 818.268 952 826C952 833.732 945.732 840 938 840C930.268 840 924 833.732 924 826C924 818.268 930.268 812 938 812Z" fill="black"/>
<path d="M70 840C77.7323 840 84 846.268 84 854C84 861.732 77.7323 868 70 868C62.2681 868 56 861.732 56 854C56 846.268 62.2681 840 70 840Z" fill="black"/>
<path d="M98 840C105.732 840 112 846.268 112 854C112 861.732 105.732 868 98 868C90.2681 868 84 861.732 84 854C84 846.268 90.2681 840 98 840Z" fill="black"/>
<path d="M126 840C133.732 840 140 846.268 140 854C140 861.732 133.732 868 126 868C118.268 868 112 861.732 112 854C112 846.268 118.268 840 126 840Z" fill="black"/>
<path d="M210 840C217.732 840 224 846.268 224 854C224 861.732 217.732 868 210 868C202.268 868 196 861.732 196 854C196 846.268 202.268 840 210 840Z" fill="black"/>
<path d="M238 840C245.732 840 252 846.268 252 854C252 861.732 245.732 868 238 868C230.268 868 224 861.732 224 854C224 846.268 230.268 840 238 840Z" fill="black"/>
<path d="M266 840C273.732 840 280 846.268 280 854C280 861.732 273.732 868 266 868C258.268 868 252 861.732 252 854C252 846.268 258.268 840 266 840Z" fill="black"/>
<path d="M294 840C301.732 840 308 846.268 308 854C308 861.732 301.732 868 294 868C286.268 868 280 861.732 280 854C280 846.268 286.268 840 294 840Z" fill="black"/>
<path d="M350 840C357.732 840 364 846.268 364 854C364 861.732 357.732 868 350 868C342.268 868 336 861.732 336 854C336 846.268 342.268 840 350 840Z" fill="black"/>
<path d="M378 840C385.732 840 392 846.268 392 854C392 861.732 385.732 868 378 868C370.268 868 364 861.732 364 854C364 846.268 370.268 840 378 840Z" fill="black"/>
<path d="M462 840C469.732 840 476 846.268 476 854C476 861.732 469.732 868 462 868C454.268 868 448 861.732 448 854C448 846.268 454.268 840 462 840Z" fill="black"/>
<path d="M490 840C497.732 840 504 846.268 504 854C504 861.732 497.732 868 490 868C482.268 868 476 861.732 476 854C476 846.268 482.268 840 490 840Z" fill="black"/>
<path d="M518 840C525.732 840 532 846.268 532 854C532 861.732 525.732 868 518 868C510.268 868 504 861.732 504 854C504 846.268 510.268 840 518 840Z" fill="black"/>
<path d="M574 840C581.732 840 588 846.268 588 854C588 861.732 581.732 868 574 868C566.268 868 560 861.732 560 854C560 846.268 566.268 840 574 840Z" fill="black"/>
<path d="M630 840C637.732 840 644 846.268 644 854C644 861.732 637.732 868 630 868C622.268 868 616 861.732 616 854C616 846.268 622.268 840 630 840Z" fill="black"/>
<path d="M658 840C665.732 840 672 846.268 672 854C672 861.732 665.732 868 658 868C650.268 868 644 861.732 644 854C644 846.268 650.268 840 658 840Z" fill="black"/>
<path d="M686 840C693.732 840 700 846.268 700 854C700 861.732 693.732 868 686 868C678.268 868 672 861.732 672 854C672 846.268 678.268 840 686 840Z" fill="black"/>
<path d="M714 840C721.732 840 728 846.268 728 854C728 861.732 721.732 868 714 868C706.268 868 700 861.732 700 854C700 846.268 706.268 840 714 840Z" fill="black"/>
<path d="M798 840C805.732 840 812 846.268 812 854C812 861.732 805.732 868 798 868C790.268 868 784 861.732 784 854C784 846.268 790.268 840 798 840Z" fill="black"/>
<path d="M854 840C861.732 840 868 846.268 868 854C868 861.732 861.732 868 854 868C846.268 868 840 861.732 840 854C840 846.268 846.268 840 854 840Z" fill="black"/>
<path d="M882 840C889.732 840 896 846.268 896 854C896 861.732 889.732 868 882 868C874.268 868 868 861.732 868 854C868 846.268 874.268 840 882 840Z" fill="black"/>
<path d="M910 840C917.732 840 924 846.268 924 854C924 861.732 917.732 868 910 868C902.268 868 896 861.732 896 854C896 846.268 902.268 840 910 840Z" fill="black"/>
<path d="M938 840C945.732 840 952 846.268 952 854C952 861.732 945.732 868 938 868C930.268 868 924 861.732 924 854C924 846.268 930.268 840 938 840Z" fill="black"/>
<path d="M966 840C973.732 840 980 846.268 980 854C980 861.732 973.732 868 966 868C958.268 868 952 861.732 952 854C952 846.268 958.268 840 966 840Z" fill="black"/>
<path d="M994 840C1001.73 840 1008 846.268 1008 854C1008 861.732 1001.73 868 994 868C986.268 868 980 861.732 980 854C980 846.268 986.268 840 994 840Z" fill="black"/>
<path d="M1050 840C1057.73 840 1064 846.268 1064 854C1064 861.732 1057.73 868 1050 868C1042.27 868 1036 861.732 1036 854C1036 846.268 1042.27 840 1050 840Z" fill="black"/>
<path d="M1078 840C1085.73 840 1092 846.268 1092 854C1092 861.732 1085.73 868 1078 868C1070.27 868 1064 861.732 1064 854C1064 846.268 1070.27 840 1078 840Z" fill="black"/>
<path d="M294 868C301.732 868 308 874.268 308 882C308 889.732 301.732 896 294 896C286.268 896 280 889.732 280 882C280 874.268 286.268 868 294 868Z" fill="black"/>
<path d="M350 868C357.732 868 364 874.268 364 882C364 889.732 357.732 896 350 896C342.268 896 336 889.732 336 882C336 874.268 342.268 868 350 868Z" fill="black"/>
<path d="M406 868C413.732 868 420 874.268 420 882C420 889.732 413.732 896 406 896C398.268 896 392 889.732 392 882C392 874.268 398.268 868 406 868Z" fill="black"/>
<path d="M462 868C469.732 868 476 874.268 476 882C476 889.732 469.732 896 462 896C454.268 896 448 889.732 448 882C448 874.268 454.268 868 462 868Z" fill="black"/>
<path d="M574 868C581.732 868 588 874.268 588 882C588 889.732 581.732 896 574 896C566.268 896 560 889.732 560 882C560 874.268 566.268 868 574 868Z" fill="black"/>
<path d="M658 868C665.732 868 672 874.268 672 882C672 889.732 665.732 896 658 896C650.268 896 644 889.732 644 882C644 874.268 650.268 868 658 868Z" fill="black"/>
<path d="M686 868C693.732 868 700 874.268 700 882C700 889.732 693.732 896 686 896C678.268 896 672 889.732 672 882C672 874.268 678.268 868 686 868Z" fill="black"/>
<path d="M714 868C721.732 868 728 874.268 728 882C728 889.732 721.732 896 714 896C706.268 896 700 889.732 700 882C700 874.268 706.268 868 714 868Z" fill="black"/>
<path d="M742 868C749.732 868 756 874.268 756 882C756 889.732 749.732 896 742 896C734.268 896 728 889.732 728 882C728 874.268 734.268 868 742 868Z" fill="black"/>
<path d="M798 868C805.732 868 812 874.268 812 882C812 889.732 805.732 896 798 896C790.268 896 784 889.732 784 882C784 874.268 790.268 868 798 868Z" fill="black"/>
<path d="M826 868C833.732 868 840 874.268 840 882C840 889.732 833.732 896 826 896C818.268 896 812 889.732 812 882C812 874.268 818.268 868 826 868Z" fill="black"/>
<path d="M854 868C861.732 868 868 874.268 868 882C868 889.732 861.732 896 854 896C846.268 896 840 889.732 840 882C840 874.268 846.268 868 854 868Z" fill="black"/>
<path d="M966 868C973.732 868 980 874.268 980 882C980 889.732 973.732 896 966 896C958.268 896 952 889.732 952 882C952 874.268 958.268 868 966 868Z" fill="black"/>
<path d="M1050 868C1057.73 868 1064 874.268 1064 882C1064 889.732 1057.73 896 1050 896C1042.27 896 1036 889.732 1036 882C1036 874.268 1042.27 868 1050 868Z" fill="black"/>
<path d="M1078 868C1085.73 868 1092 874.268 1092 882C1092 889.732 1085.73 896 1078 896C1070.27 896 1064 889.732 1064 882C1064 874.268 1070.27 868 1078 868Z" fill="black"/>
<path d="M294 896C301.732 896 308 902.268 308 910C308 917.732 301.732 924 294 924C286.268 924 280 917.732 280 910C280 902.268 286.268 896 294 896Z" fill="black"/>
<path d="M378 896C385.732 896 392 902.268 392 910C392 917.732 385.732 924 378 924C370.268 924 364 917.732 364 910C364 902.268 370.268 896 378 896Z" fill="black"/>
<path d="M406 896C413.732 896 420 902.268 420 910C420 917.732 413.732 924 406 924C398.268 924 392 917.732 392 910C392 902.268 398.268 896 406 896Z" fill="black"/>
<path d="M490 896C497.732 896 504 902.268 504 910C504 917.732 497.732 924 490 924C482.268 924 476 917.732 476 910C476 902.268 482.268 896 490 896Z" fill="black"/>
<path d="M546 896C553.732 896 560 902.268 560 910C560 917.732 553.732 924 546 924C538.268 924 532 917.732 532 910C532 902.268 538.268 896 546 896Z" fill="black"/>
<path d="M574 896C581.732 896 588 902.268 588 910C588 917.732 581.732 924 574 924C566.268 924 560 917.732 560 910C560 902.268 566.268 896 574 896Z" fill="black"/>
<path d="M630 896C637.732 896 644 902.268 644 910C644 917.732 637.732 924 630 924C622.268 924 616 917.732 616 910C616 902.268 622.268 896 630 896Z" fill="black"/>
<path d="M686 896C693.732 896 700 902.268 700 910C700 917.732 693.732 924 686 924C678.268 924 672 917.732 672 910C672 902.268 678.268 896 686 896Z" fill="black"/>
<path d="M714 896C721.732 896 728 902.268 728 910C728 917.732 721.732 924 714 924C706.268 924 700 917.732 700 910C700 902.268 706.268 896 714 896Z" fill="black"/>
<path d="M742 896C749.732 896 756 902.268 756 910C756 917.732 749.732 924 742 924C734.268 924 728 917.732 728 910C728 902.268 734.268 896 742 896Z" fill="black"/>
<path d="M770 896C777.732 896 784 902.268 784 910C784 917.732 777.732 924 770 924C762.268 924 756 917.732 756 910C756 902.268 762.268 896 770 896Z" fill="black"/>
<path d="M854 896C861.732 896 868 902.268 868 910C868 917.732 861.732 924 854 924C846.268 924 840 917.732 840 910C840 902.268 846.268 896 854 896Z" fill="black"/>
<path d="M910 896C917.732 896 924 902.268 924 910C924 917.732 917.732 924 910 924C902.268 924 896 917.732 896 910C896 902.268 902.268 896 910 896Z" fill="black"/>
<path d="M966 896C973.732 896 980 902.268 980 910C980 917.732 973.732 924 966 924C958.268 924 952 917.732 952 910C952 902.268 958.268 896 966 896Z" fill="black"/>
<path d="M994 896C1001.73 896 1008 902.268 1008 910C1008 917.732 1001.73 924 994 924C986.268 924 980 917.732 980 910C980 902.268 986.268 896 994 896Z" fill="black"/>
<path d="M1022 896C1029.73 896 1036 902.268 1036 910C1036 917.732 1029.73 924 1022 924C1014.27 924 1008 917.732 1008 910C1008 902.268 1014.27 896 1022 896Z" fill="black"/>
<path d="M1078 896C1085.73 896 1092 902.268 1092 910C1092 917.732 1085.73 924 1078 924C1070.27 924 1064 917.732 1064 910C1064 902.268 1070.27 896 1078 896Z" fill="black"/>
<path d="M294 924C301.732 924 308 930.268 308 938C308 945.732 301.732 952 294 952C286.268 952 280 945.732 280 938C280 930.268 286.268 924 294 924Z" fill="black"/>
<path d="M322 924C329.732 924 336 930.268 336 938C336 945.732 329.732 952 322 952C314.268 952 308 945.732 308 938C308 930.268 314.268 924 322 924Z" fill="black"/>
<path d="M378 924C385.732 924 392 930.268 392 938C392 945.732 385.732 952 378 952C370.268 952 364 945.732 364 938C364 930.268 370.268 924 378 924Z" fill="black"/>
<path d="M434 924C441.732 924 448 930.268 448 938C448 945.732 441.732 952 434 952C426.268 952 420 945.732 420 938C420 930.268 426.268 924 434 924Z" fill="black"/>
<path d="M462 924C469.732 924 476 930.268 476 938C476 945.732 469.732 952 462 952C454.268 952 448 945.732 448 938C448 930.268 454.268 924 462 924Z" fill="black"/>
<path d="M490 924C497.732 924 504 930.268 504 938C504 945.732 497.732 952 490 952C482.268 952 476 945.732 476 938C476 930.268 482.268 924 490 924Z" fill="black"/>
<path d="M518 924C525.732 924 532 930.268 532 938C532 945.732 525.732 952 518 952C510.268 952 504 945.732 504 938C504 930.268 510.268 924 518 924Z" fill="black"/>
<path d="M574 924C581.732 924 588 930.268 588 938C588 945.732 581.732 952 574 952C566.268 952 560 945.732 560 938C560 930.268 566.268 924 574 924Z" fill="black"/>
<path d="M602 924C609.732 924 616 930.268 616 938C616 945.732 609.732 952 602 952C594.268 952 588 945.732 588 938C588 930.268 594.268 924 602 924Z" fill="black"/>
<path d="M630 924C637.732 924 644 930.268 644 938C644 945.732 637.732 952 630 952C622.268 952 616 945.732 616 938C616 930.268 622.268 924 630 924Z" fill="black"/>
<path d="M658 924C665.732 924 672 930.268 672 938C672 945.732 665.732 952 658 952C650.268 952 644 945.732 644 938C644 930.268 650.268 924 658 924Z" fill="black"/>
<path d="M742 924C749.732 924 756 930.268 756 938C756 945.732 749.732 952 742 952C734.268 952 728 945.732 728 938C728 930.268 734.268 924 742 924Z" fill="black"/>
<path d="M798 924C805.732 924 812 930.268 812 938C812 945.732 805.732 952 798 952C790.268 952 784 945.732 784 938C784 930.268 790.268 924 798 924Z" fill="black"/>
<path d="M854 924C861.732 924 868 930.268 868 938C868 945.732 861.732 952 854 952C846.268 952 840 945.732 840 938C840 930.268 846.268 924 854 924Z" fill="black"/>
<path d="M966 924C973.732 924 980 930.268 980 938C980 945.732 973.732 952 966 952C958.268 952 952 945.732 952 938C952 930.268 958.268 924 966 924Z" fill="black"/>
<path d="M994 924C1001.73 924 1008 930.268 1008 938C1008 945.732 1001.73 952 994 952C986.268 952 980 945.732 980 938C980 930.268 986.268 924 994 924Z" fill="black"/>
<path d="M1050 924C1057.73 924 1064 930.268 1064 938C1064 945.732 1057.73 952 1050 952C1042.27 952 1036 945.732 1036 938C1036 930.268 1042.27 924 1050 924Z" fill="black"/>
<path d="M1078 924C1085.73 924 1092 930.268 1092 938C1092 945.732 1085.73 952 1078 952C1070.27 952 1064 945.732 1064 938C1064 930.268 1070.27 924 1078 924Z" fill="black"/>
<path d="M434 952C441.732 952 448 958.268 448 966C448 973.732 441.732 980 434 980C426.268 980 420 973.732 420 966C420 958.268 426.268 952 434 952Z" fill="black"/>
<path d="M462 952C469.732 952 476 958.268 476 966C476 973.732 469.732 980 462 980C454.268 980 448 973.732 448 966C448 958.268 454.268 952 462 952Z" fill="black"/>
<path d="M546 952C553.732 952 560 958.268 560 966C560 973.732 553.732 980 546 980C538.268 980 532 973.732 532 966C532 958.268 538.268 952 546 952Z" fill="black"/>
<path d="M574 952C581.732 952 588 958.268 588 966C588 973.732 581.732 980 574 980C566.268 980 560 973.732 560 966C560 958.268 566.268 952 574 952Z" fill="black"/>
<path d="M686 952C693.732 952 700 958.268 700 966C700 973.732 693.732 980 686 980C678.268 980 672 973.732 672 966C672 958.268 678.268 952 686 952Z" fill="black"/>
<path d="M742 952C749.732 952 756 958.268 756 966C756 973.732 749.732 980 742 980C734.268 980 728 973.732 728 966C728 958.268 734.268 952 742 952Z" fill="black"/>
<path d="M770 952C777.732 952 784 958.268 784 966C784 973.732 777.732 980 770 980C762.268 980 756 973.732 756 966C756 958.268 762.268 952 770 952Z" fill="black"/>
<path d="M826 952C833.732 952 840 958.268 840 966C840 973.732 833.732 980 826 980C818.268 980 812 973.732 812 966C812 958.268 818.268 952 826 952Z" fill="black"/>
<path d="M854 952C861.732 952 868 958.268 868 966C868 973.732 861.732 980 854 980C846.268 980 840 973.732 840 966C840 958.268 846.268 952 854 952Z" fill="black"/>
<path d="M882 952C889.732 952 896 958.268 896 966C896 973.732 889.732 980 882 980C874.268 980 868 973.732 868 966C868 958.268 874.268 952 882 952Z" fill="black"/>
<path d="M910 952C917.732 952 924 958.268 924 966C924 973.732 917.732 980 910 980C902.268 980 896 973.732 896 966C896 958.268 902.268 952 910 952Z" fill="black"/>
<path d="M938 952C945.732 952 952 958.268 952 966C952 973.732 945.732 980 938 980C930.268 980 924 973.732 924 966C924 958.268 930.268 952 938 952Z" fill="black"/>
<path d="M966 952C973.732 952 980 958.268 980 966C980 973.732 973.732 980 966 980C958.268 980 952 973.732 952 966C952 958.268 958.268 952 966 952Z" fill="black"/>
<path d="M994 952C1001.73 952 1008 958.268 1008 966C1008 973.732 1001.73 980 994 980C986.268 980 980 973.732 980 966C980 958.268 986.268 952 994 952Z" fill="black"/>
<path d="M322 980C329.732 980 336 986.268 336 994C336 1001.73 329.732 1008 322 1008C314.268 1008 308 1001.73 308 994C308 986.268 314.268 980 322 980Z" fill="black"/>
<path d="M350 980C357.732 980 364 986.268 364 994C364 1001.73 357.732 1008 350 1008C342.268 1008 336 1001.73 336 994C336 986.268 342.268 980 350 980Z" fill="black"/>
<path d="M378 980C385.732 980 392 986.268 392 994C392 1001.73 385.732 1008 378 1008C370.268 1008 364 1001.73 364 994C364 986.268 370.268 980 378 980Z" fill="black"/>
<path d="M490 980C497.732 980 504 986.268 504 994C504 1001.73 497.732 1008 490 1008C482.268 1008 476 1001.73 476 994C476 986.268 482.268 980 490 980Z" fill="black"/>
<path d="M518 980C525.732 980 532 986.268 532 994C532 1001.73 525.732 1008 518 1008C510.268 1008 504 1001.73 504 994C504 986.268 510.268 980 518 980Z" fill="black"/>
<path d="M630 980C637.732 980 644 986.268 644 994C644 1001.73 637.732 1008 630 1008C622.268 1008 616 1001.73 616 994C616 986.268 622.268 980 630 980Z" fill="black"/>
<path d="M742 980C749.732 980 756 986.268 756 994C756 1001.73 749.732 1008 742 1008C734.268 1008 728 1001.73 728 994C728 986.268 734.268 980 742 980Z" fill="black"/>
<path d="M854 980C861.732 980 868 986.268 868 994C868 1001.73 861.732 1008 854 1008C846.268 1008 840 1001.73 840 994C840 986.268 846.268 980 854 980Z" fill="black"/>
<path d="M966 980C973.732 980 980 986.268 980 994C980 1001.73 973.732 1008 966 1008C958.268 1008 952 1001.73 952 994C952 986.268 958.268 980 966 980Z" fill="black"/>
<path d="M994 980C1001.73 980 1008 986.268 1008 994C1008 1001.73 1001.73 1008 994 1008C986.268 1008 980 1001.73 980 994C980 986.268 986.268 980 994 980Z" fill="black"/>
<path d="M1022 980C1029.73 980 1036 986.268 1036 994C1036 1001.73 1029.73 1008 1022 1008C1014.27 1008 1008 1001.73 1008 994C1008 986.268 1014.27 980 1022 980Z" fill="black"/>
<path d="M1078 980C1085.73 980 1092 986.268 1092 994C1092 1001.73 1085.73 1008 1078 1008C1070.27 1008 1064 1001.73 1064 994C1064 986.268 1070.27 980 1078 980Z" fill="black"/>
<path d="M294 1008C301.732 1008 308 1014.27 308 1022C308 1029.73 301.732 1036 294 1036C286.268 1036 280 1029.73 280 1022C280 1014.27 286.268 1008 294 1008Z" fill="black"/>
<path d="M350 1008C357.732 1008 364 1014.27 364 1022C364 1029.73 357.732 1036 350 1036C342.268 1036 336 1029.73 336 1022C336 1014.27 342.268 1008 350 1008Z" fill="black"/>
<path d="M378 1008C385.732 1008 392 1014.27 392 1022C392 1029.73 385.732 1036 378 1036C370.268 1036 364 1029.73 364 1022C364 1014.27 370.268 1008 378 1008Z" fill="black"/>
<path d="M406 1008C413.732 1008 420 1014.27 420 1022C420 1029.73 413.732 1036 406 1036C398.268 1036 392 1029.73 392 1022C392 1014.27 398.268 1008 406 1008Z" fill="black"/>
<path d="M462 1008C469.732 1008 476 1014.27 476 1022C476 1029.73 469.732 1036 462 1036C454.268 1036 448 1029.73 448 1022C448 1014.27 454.268 1008 462 1008Z" fill="black"/>
<path d="M490 1008C497.732 1008 504 1014.27 504 1022C504 1029.73 497.732 1036 490 1036C482.268 1036 476 1029.73 476 1022C476 1014.27 482.268 1008 490 1008Z" fill="black"/>
<path d="M518 1008C525.732 1008 532 1014.27 532 1022C532 1029.73 525.732 1036 518 1036C510.268 1036 504 1029.73 504 1022C504 1014.27 510.268 1008 518 1008Z" fill="black"/>
<path d="M546 1008C553.732 1008 560 1014.27 560 1022C560 1029.73 553.732 1036 546 1036C538.268 1036 532 1029.73 532 1022C532 1014.27 538.268 1008 546 1008Z" fill="black"/>
<path d="M574 1008C581.732 1008 588 1014.27 588 1022C588 1029.73 581.732 1036 574 1036C566.268 1036 560 1029.73 560 1022C560 1014.27 566.268 1008 574 1008Z" fill="black"/>
<path d="M686 1008C693.732 1008 700 1014.27 700 1022C700 1029.73 693.732 1036 686 1036C678.268 1036 672 1029.73 672 1022C672 1014.27 678.268 1008 686 1008Z" fill="black"/>
<path d="M742 1008C749.732 1008 756 1014.27 756 1022C756 1029.73 749.732 1036 742 1036C734.268 1036 728 1029.73 728 1022C728 1014.27 734.268 1008 742 1008Z" fill="black"/>
<path d="M770 1008C777.732 1008 784 1014.27 784 1022C784 1029.73 777.732 1036 770 1036C762.268 1036 756 1029.73 756 1022C756 1014.27 762.268 1008 770 1008Z" fill="black"/>
<path d="M882 1008C889.732 1008 896 1014.27 896 1022C896 1029.73 889.732 1036 882 1036C874.268 1036 868 1029.73 868 1022C868 1014.27 874.268 1008 882 1008Z" fill="black"/>
<path d="M938 1008C945.732 1008 952 1014.27 952 1022C952 1029.73 945.732 1036 938 1036C930.268 1036 924 1029.73 924 1022C924 1014.27 930.268 1008 938 1008Z" fill="black"/>
<path d="M966 1008C973.732 1008 980 1014.27 980 1022C980 1029.73 973.732 1036 966 1036C958.268 1036 952 1029.73 952 1022C952 1014.27 958.268 1008 966 1008Z" fill="black"/>
<path d="M1022 1008C1029.73 1008 1036 1014.27 1036 1022C1036 1029.73 1029.73 1036 1022 1036C1014.27 1036 1008 1029.73 1008 1022C1008 1014.27 1014.27 1008 1022 1008Z" fill="black"/>
<path d="M1050 1008C1057.73 1008 1064 1014.27 1064 1022C1064 1029.73 1057.73 1036 1050 1036C1042.27 1036 1036 1029.73 1036 1022C1036 1014.27 1042.27 1008 1050 1008Z" fill="black"/>
<path d="M1078 1008C1085.73 1008 1092 1014.27 1092 1022C1092 1029.73 1085.73 1036 1078 1036C1070.27 1036 1064 1029.73 1064 1022C1064 1014.27 1070.27 1008 1078 1008Z" fill="black"/>
<path d="M406 1036C413.732 1036 420 1042.27 420 1050C420 1057.73 413.732 1064 406 1064C398.268 1064 392 1057.73 392 1050C392 1042.27 398.268 1036 406 1036Z" fill="black"/>
<path d="M434 1036C441.732 1036 448 1042.27 448 1050C448 1057.73 441.732 1064 434 1064C426.268 1064 420 1057.73 420 1050C420 1042.27 426.268 1036 434 1036Z" fill="black"/>
<path d="M462 1036C469.732 1036 476 1042.27 476 1050C476 1057.73 469.732 1064 462 1064C454.268 1064 448 1057.73 448 1050C448 1042.27 454.268 1036 462 1036Z" fill="black"/>
<path d="M574 1036C581.732 1036 588 1042.27 588 1050C588 1057.73 581.732 1064 574 1064C566.268 1064 560 1057.73 560 1050C560 1042.27 566.268 1036 574 1036Z" fill="black"/>
<path d="M630 1036C637.732 1036 644 1042.27 644 1050C644 1057.73 637.732 1064 630 1064C622.268 1064 616 1057.73 616 1050C616 1042.27 622.268 1036 630 1036Z" fill="black"/>
<path d="M658 1036C665.732 1036 672 1042.27 672 1050C672 1057.73 665.732 1064 658 1064C650.268 1064 644 1057.73 644 1050C644 1042.27 650.268 1036 658 1036Z" fill="black"/>
<path d="M686 1036C693.732 1036 700 1042.27 700 1050C700 1057.73 693.732 1064 686 1064C678.268 1064 672 1057.73 672 1050C672 1042.27 678.268 1036 686 1036Z" fill="black"/>
<path d="M714 1036C721.732 1036 728 1042.27 728 1050C728 1057.73 721.732 1064 714 1064C706.268 1064 700 1057.73 700 1050C700 1042.27 706.268 1036 714 1036Z" fill="black"/>
<path d="M742 1036C749.732 1036 756 1042.27 756 1050C756 1057.73 749.732 1064 742 1064C734.268 1064 728 1057.73 728 1050C728 1042.27 734.268 1036 742 1036Z" fill="black"/>
<path d="M798 1036C805.732 1036 812 1042.27 812 1050C812 1057.73 805.732 1064 798 1064C790.268 1064 784 1057.73 784 1050C784 1042.27 790.268 1036 798 1036Z" fill="black"/>
<path d="M854 1036C861.732 1036 868 1042.27 868 1050C868 1057.73 861.732 1064 854 1064C846.268 1064 840 1057.73 840 1050C840 1042.27 846.268 1036 854 1036Z" fill="black"/>
<path d="M882 1036C889.732 1036 896 1042.27 896 1050C896 1057.73 889.732 1064 882 1064C874.268 1064 868 1057.73 868 1050C868 1042.27 874.268 1036 882 1036Z" fill="black"/>
<path d="M938 1036C945.732 1036 952 1042.27 952 1050C952 1057.73 945.732 1064 938 1064C930.268 1064 924 1057.73 924 1050C924 1042.27 930.268 1036 938 1036Z" fill="black"/>
<path d="M994 1036C1001.73 1036 1008 1042.27 1008 1050C1008 1057.73 1001.73 1064 994 1064C986.268 1064 980 1057.73 980 1050C980 1042.27 986.268 1036 994 1036Z" fill="black"/>
<path d="M350 1064C357.732 1064 364 1070.27 364 1078C364 1085.73 357.732 1092 350 1092C342.268 1092 336 1085.73 336 1078C336 1070.27 342.268 1064 350 1064Z" fill="black"/>
<path d="M378 1064C385.732 1064 392 1070.27 392 1078C392 1085.73 385.732 1092 378 1092C370.268 1092 364 1085.73 364 1078C364 1070.27 370.268 1064 378 1064Z" fill="black"/>
<path d="M462 1064C469.732 1064 476 1070.27 476 1078C476 1085.73 469.732 1092 462 1092C454.268 1092 448 1085.73 448 1078C448 1070.27 454.268 1064 462 1064Z" fill="black"/>
<path d="M574 1064C581.732 1064 588 1070.27 588 1078C588 1085.73 581.732 1092 574 1092C566.268 1092 560 1085.73 560 1078C560 1070.27 566.268 1064 574 1064Z" fill="black"/>
<path d="M602 1064C609.732 1064 616 1070.27 616 1078C616 1085.73 609.732 1092 602 1092C594.268 1092 588 1085.73 588 1078C588 1070.27 594.268 1064 602 1064Z" fill="black"/>
<path d="M630 1064C637.732 1064 644 1070.27 644 1078C644 1085.73 637.732 1092 630 1092C622.268 1092 616 1085.73 616 1078C616 1070.27 622.268 1064 630 1064Z" fill="black"/>
<path d="M686 1064C693.732 1064 700 1070.27 700 1078C700 1085.73 693.732 1092 686 1092C678.268 1092 672 1085.73 672 1078C672 1070.27 678.268 1064 686 1064Z" fill="black"/>
<path d="M742 1064C749.732 1064 756 1070.27 756 1078C756 1085.73 749.732 1092 742 1092C734.268 1092 728 1085.73 728 1078C728 1070.27 734.268 1064 742 1064Z" fill="black"/>
<path d="M854 1064C861.732 1064 868 1070.27 868 1078C868 1085.73 861.732 1092 854 1092C846.268 1092 840 1085.73 840 1078C840 1070.27 846.268 1064 854 1064Z" fill="black"/>
<path d="M910 1064C917.732 1064 924 1070.27 924 1078C924 1085.73 917.732 1092 910 1092C902.268 1092 896 1085.73 896 1078C896 1070.27 902.268 1064 910 1064Z" fill="black"/>
<path d="M938 1064C945.732 1064 952 1070.27 952 1078C952 1085.73 945.732 1092 938 1092C930.268 1092 924 1085.73 924 1078C924 1070.27 930.268 1064 938 1064Z" fill="black"/>
<path d="M994 1064C1001.73 1064 1008 1070.27 1008 1078C1008 1085.73 1001.73 1092 994 1092C986.268 1092 980 1085.73 980 1078C980 1070.27 986.268 1064 994 1064Z" fill="black"/>
<path d="M1078 1064C1085.73 1064 1092 1070.27 1092 1078C1092 1085.73 1085.73 1092 1078 1092C1070.27 1092 1064 1085.73 1064 1078C1064 1070.27 1070.27 1064 1078 1064Z" fill="black"/>
<path d="M154 57.9216C100.94 57.9216 57.9214 100.94 57.9214 154C57.9214 207.06 100.94 250.078 154 250.078C207.06 250.078 250.078 207.06 250.078 154C250.078 100.94 207.06 57.9216 154 57.9216ZM154 221.255C116.915 221.255 86.7449 191.084 86.7449 154C86.7449 116.916 116.915 86.7451 154 86.7451C191.084 86.7451 221.255 116.916 221.255 154C221.255 191.084 191.084 221.255 154 221.255Z" fill="black"/>
<path d="M994 57.9216C940.94 57.9216 897.921 100.94 897.921 154C897.921 207.06 940.94 250.078 994 250.078C1047.06 250.078 1090.08 207.06 1090.08 154C1090.08 100.94 1047.06 57.9216 994 57.9216ZM994 221.255C956.915 221.255 926.745 191.084 926.745 154C926.745 116.916 956.915 86.7451 994 86.7451C1031.08 86.7451 1061.25 116.916 1061.25 154C1061.25 191.084 1031.08 221.255 994 221.255Z" fill="black"/>
<path d="M154 897.922C100.94 897.922 57.9214 940.94 57.9214 994C57.9214 1047.06 100.94 1090.08 154 1090.08C207.06 1090.08 250.078 1047.06 250.078 994C250.078 940.94 207.06 897.922 154 897.922ZM154 1061.25C116.915 1061.25 86.7449 1031.08 86.7449 994C86.7449 956.916 116.915 926.745 154 926.745C191.084 926.745 221.255 956.916 221.255 994C221.255 1031.08 191.084 1061.25 154 1061.25Z" fill="black"/>
<path d="M153.176 194.353C175.918 194.353 194.353 175.918 194.353 153.176C194.353 130.435 175.918 112 153.176 112C130.435 112 112 130.435 112 153.176C112 175.918 130.435 194.353 153.176 194.353Z" fill="black"/>
<path d="M993.176 194.353C1015.92 194.353 1034.35 175.918 1034.35 153.176C1034.35 130.435 1015.92 112 993.176 112C970.435 112 952 130.435 952 153.176C952 175.918 970.435 194.353 993.176 194.353Z" fill="black"/>
<path d="M153.176 1034.35C175.918 1034.35 194.353 1015.92 194.353 993.176C194.353 970.435 175.918 952 153.176 952C130.435 952 112 970.435 112 993.176C112 1015.92 130.435 1034.35 153.176 1034.35Z" fill="black"/>
<path d="M381.601 624.064H384.53L381.787 635.452C381.369 637.126 381.462 638.427 382.02 639.264C382.577 640.101 383.6 640.519 385.134 640.519C386.621 640.519 387.877 640.101 388.853 639.264C389.829 638.427 390.48 637.126 390.898 635.452L393.641 624.064H396.616L393.827 635.731C393.222 638.241 392.153 640.147 390.573 641.402C389.039 642.657 386.993 643.308 384.483 643.308C381.973 643.308 380.253 642.704 379.323 641.449C378.394 640.194 378.208 638.288 378.812 635.778L381.601 624.064ZM396.197 642.797L400.846 623.32L409.678 634.755C409.91 635.08 410.143 635.406 410.375 635.778C410.607 636.15 410.84 636.568 411.119 637.033L414.233 624.064H416.976L412.327 643.494L403.309 631.827L402.612 630.85C402.38 630.479 402.194 630.153 402.054 629.735L398.94 642.75H396.197V642.797ZM416.743 642.797L421.206 624.064H424.181L419.718 642.797H416.743ZM423.948 642.797L428.411 624.064H438.591L437.987 626.667H430.782L429.666 631.315H436.871L436.22 633.965H429.015L426.923 642.75H423.948V642.797ZM437.429 642.797L441.891 624.064H444.866L440.404 642.797H437.429ZM444.634 642.797L449.096 624.064H459.277L458.672 626.667H451.467L450.352 631.362H457.557L456.906 634.011H449.701L448.26 640.054H455.465L454.814 642.797H444.634ZM458.254 642.797L462.716 624.064H466.714C469.317 624.064 471.13 624.203 472.106 624.482C473.082 624.761 473.919 625.179 474.57 625.83C475.407 626.667 475.964 627.736 476.197 628.991C476.429 630.293 476.336 631.78 475.964 633.407C475.546 635.08 474.942 636.521 474.105 637.823C473.268 639.125 472.199 640.147 470.944 640.984C470.014 641.635 468.992 642.053 467.876 642.332C466.807 642.611 465.18 642.75 463.042 642.75H458.254V642.797ZM461.88 640.008H464.39C465.738 640.008 466.807 639.915 467.551 639.729C468.295 639.543 468.945 639.218 469.55 638.799C470.386 638.195 471.084 637.451 471.641 636.521C472.199 635.638 472.618 634.569 472.896 633.361C473.175 632.152 473.268 631.129 473.129 630.246C472.989 629.363 472.664 628.573 472.106 627.968C471.688 627.504 471.177 627.225 470.479 627.039C469.782 626.853 468.713 626.76 467.179 626.76H465.041L461.88 640.008ZM489.631 634.383L487.632 642.797H484.843L489.305 624.064H493.814C495.163 624.064 496.092 624.157 496.697 624.296C497.301 624.436 497.766 624.668 498.138 625.04C498.602 625.458 498.928 626.063 499.067 626.806C499.207 627.55 499.16 628.34 498.974 629.223C498.742 630.107 498.416 630.943 497.905 631.687C497.394 632.431 496.789 633.035 496.139 633.454C495.581 633.779 494.977 634.058 494.326 634.197C493.675 634.337 492.652 634.43 491.351 634.43H489.631V634.383ZM490.421 631.873H491.165C492.792 631.873 493.954 631.687 494.605 631.315C495.255 630.943 495.674 630.293 495.906 629.363C496.139 628.387 495.999 627.643 495.534 627.271C495.023 626.853 494 626.667 492.466 626.667H491.723L490.421 631.873ZM509.061 642.797L508.132 637.963H500.88L497.626 642.797H494.512L507.992 623.32L512.176 642.797H509.061ZM502.646 635.406H507.713L506.877 631.129C506.83 630.85 506.784 630.525 506.784 630.2C506.737 629.828 506.737 629.456 506.737 629.038C506.551 629.456 506.365 629.828 506.133 630.2C505.947 630.571 505.761 630.897 505.575 631.176L502.646 635.406ZM516.452 642.797L518.498 634.244L514.779 624.11H517.893L520.218 630.479C520.264 630.664 520.311 630.85 520.404 631.129C520.497 631.408 520.543 631.687 520.636 631.966L521.194 631.129C521.38 630.85 521.566 630.618 521.752 630.386L527.19 624.11H530.165L521.473 634.197L519.427 642.75H516.452V642.797ZM544.761 633.546C544.761 633.407 544.808 632.989 544.901 632.338C544.947 631.78 544.994 631.362 545.04 630.99C544.854 631.408 544.668 631.827 544.436 632.291C544.204 632.71 543.925 633.175 543.599 633.593L536.441 643.587L534.116 633.407C534.023 632.989 533.93 632.57 533.884 632.198C533.838 631.827 533.791 631.408 533.791 631.036C533.698 631.408 533.559 631.827 533.419 632.291C533.28 632.71 533.094 633.175 532.861 633.639L528.678 642.843H525.935L534.907 623.32L537.463 635.127C537.51 635.313 537.556 635.638 537.603 636.057C537.649 636.475 537.742 637.033 537.835 637.684C538.161 637.126 538.579 636.475 539.137 635.638C539.276 635.406 539.416 635.266 539.462 635.127L547.55 623.32L547.272 642.843H544.529L544.761 633.546ZM549.689 642.797L554.151 624.064H564.331L563.727 626.667H556.522L555.406 631.362H562.611L561.961 634.011H554.755L553.314 640.054H560.52L559.869 642.797H549.689ZM563.262 642.797L567.911 623.32L576.743 634.755C576.975 635.08 577.207 635.406 577.44 635.778C577.672 636.15 577.905 636.568 578.184 637.033L581.298 624.064H584.041L579.392 643.494L570.374 631.827L569.677 630.85C569.445 630.479 569.259 630.153 569.119 629.735L566.005 642.75H563.262V642.797ZM593.523 626.62L589.665 642.75H586.69L590.548 626.62H585.714L586.318 624.017H598.962L598.358 626.62H593.523ZM596.638 639.032L599.288 637.916C599.334 638.753 599.566 639.404 600.078 639.822C600.589 640.24 601.286 640.473 602.216 640.473C603.099 640.473 603.843 640.24 604.494 639.729C605.145 639.218 605.563 638.567 605.749 637.73C606.028 636.614 605.377 635.638 603.796 634.802C603.564 634.662 603.425 634.569 603.285 634.523C601.519 633.5 600.403 632.617 599.938 631.78C599.473 630.943 599.38 629.967 599.659 628.805C600.031 627.271 600.822 626.063 602.077 625.086C603.332 624.157 604.726 623.645 606.4 623.645C607.748 623.645 608.817 623.924 609.607 624.436C610.397 624.947 610.816 625.737 610.955 626.713L608.352 627.922C608.12 627.318 607.841 626.899 607.469 626.62C607.097 626.341 606.632 626.202 606.074 626.202C605.284 626.202 604.587 626.434 604.029 626.853C603.471 627.271 603.099 627.829 602.913 628.573C602.634 629.688 603.425 630.757 605.238 631.734C605.377 631.827 605.47 631.873 605.563 631.92C607.143 632.756 608.213 633.593 608.677 634.43C609.142 635.266 609.235 636.243 608.956 637.498C608.538 639.264 607.655 640.659 606.307 641.728C604.959 642.75 603.378 643.308 601.519 643.308C599.985 643.308 598.776 642.936 597.939 642.193C597.01 641.449 596.591 640.38 596.638 639.032ZM618.532 642.797L622.995 624.064H625.97L621.507 642.797H618.532ZM625.784 642.797L630.432 623.32L639.264 634.755C639.497 635.08 639.729 635.406 639.961 635.778C640.194 636.15 640.426 636.568 640.705 637.033L643.82 624.064H646.562L641.914 643.494L632.896 631.827L632.198 630.85C631.966 630.479 631.78 630.153 631.641 629.735L628.526 642.75H625.784V642.797ZM656.045 626.62L652.187 642.75H649.212L653.07 626.62H648.236L648.84 624.017H661.484L660.879 626.62H656.045ZM659.252 642.797L663.715 624.064H673.941L673.337 626.667H666.132L665.016 631.362H672.222L671.571 634.011H664.366L662.925 640.054H670.13L669.479 642.797H659.252ZM677.614 634.383L675.615 642.75H672.826L677.288 624.017H681.425C682.634 624.017 683.564 624.11 684.168 624.25C684.819 624.389 685.33 624.668 685.702 625.04C686.167 625.505 686.446 626.063 686.585 626.806C686.725 627.504 686.678 628.294 686.492 629.177C686.12 630.664 685.516 631.873 684.586 632.71C683.657 633.546 682.495 634.058 681.1 634.244L685.33 642.75H681.983L677.939 634.383H677.614ZM678.357 632.013H678.915C680.496 632.013 681.565 631.827 682.169 631.455C682.773 631.083 683.192 630.432 683.424 629.456C683.657 628.433 683.564 627.689 683.099 627.271C682.634 626.853 681.658 626.62 680.17 626.62H679.613L678.357 632.013ZM687.143 642.797L691.606 624.064H701.786L701.181 626.667H693.976L692.861 631.315H700.066L699.415 633.965H692.21L690.118 642.75H687.143V642.797ZM711.687 642.797L710.757 637.963H703.505L700.252 642.797H697.137L710.618 623.32L714.801 642.797H711.687ZM705.225 635.406H710.292L709.456 631.129C709.409 630.85 709.363 630.525 709.363 630.2C709.316 629.828 709.316 629.456 709.316 629.038C709.13 629.456 708.944 629.828 708.712 630.2C708.526 630.571 708.34 630.897 708.154 631.176L705.225 635.406ZM734.139 628.619C733.488 627.875 732.698 627.318 731.861 626.992C731.024 626.62 730.095 626.434 729.025 626.434C727.027 626.434 725.26 627.085 723.68 628.387C722.099 629.688 721.077 631.408 720.565 633.5C720.1 635.499 720.286 637.172 721.216 638.52C722.099 639.822 723.494 640.473 725.353 640.473C726.422 640.473 727.491 640.287 728.561 639.868C729.63 639.496 730.699 638.892 731.814 638.102L730.978 641.542C730.048 642.146 729.072 642.564 728.049 642.843C727.027 643.122 726.004 643.262 724.888 643.262C723.494 643.262 722.239 643.029 721.17 642.564C720.1 642.1 719.217 641.402 718.52 640.473C717.823 639.589 717.404 638.52 717.218 637.312C717.032 636.103 717.079 634.802 717.451 633.407C717.776 632.013 718.334 630.757 719.078 629.549C719.822 628.34 720.798 627.271 721.913 626.388C723.029 625.458 724.238 624.761 725.539 624.296C726.841 623.831 728.142 623.599 729.49 623.599C730.559 623.599 731.536 623.738 732.465 624.064C733.348 624.389 734.185 624.854 734.929 625.505L734.139 628.619ZM734.418 642.797L738.88 624.064H749.06L748.456 626.667H741.251L740.135 631.362H747.34L746.689 634.011H739.484L738.043 640.054H745.248L744.598 642.797H734.418Z" fill="#3D3D3C"/>
<path d="M680.31 607.748H659.903L688.259 505.343H708.665L680.31 607.748ZM669.712 508.55C668.317 506.598 666.132 505.621 663.157 505.621H551.037L545.505 525.703H647.492L641.542 547.132H559.962V547.086H539.555L522.635 608.213H543.042L554.384 567.213H646.097C648.98 567.213 651.676 566.237 654.186 564.285C656.696 562.332 658.369 559.915 659.16 557.033L670.502 516.034C671.385 512.966 671.106 510.502 669.712 508.55ZM510.735 601.333C509.619 605.377 505.901 608.213 501.717 608.213H396.523C393.641 608.213 391.503 607.236 390.108 605.284C388.713 603.332 388.388 600.914 389.225 598.032L414.884 505.621H435.291L412.374 588.178H494.001L516.917 505.621H537.324L510.735 601.333Z" fill="#70706E"/>
<path d="M743.901 505.529L769.699 556.847L715.452 608.166L743.901 505.529Z" fill="#098041"/>
<path d="M725.771 505.529L751.57 556.847L697.276 608.166L725.771 505.529Z" fill="#E97626"/>
</g>
<defs>
<clipPath id="clip0_165_35">
<rect width="1148" height="1148" rx="31" fill="white"/>
</clipPath>
</defs>
</svg>
